<svg width="1600" height="600" viewBox="0 0 1600 600" fill="none" xmlns="http://www.w3.org/2000/svg">
<g clip-path="url(#clip0_129_16249)">
<path d="M1600 0H0V600H1600V0Z" fill="white"/>
<path d="M577.733 49.8859H575.823L580.114 37.958H582.193L586.484 49.8859H584.575L581.203 40.1246H581.11L577.733 49.8859ZM578.053 45.2149H584.249V46.7292H578.053V45.2149Z" fill="#A7A7A7"/>
<path d="M624.924 49.8859V37.958H629.291C630.137 37.958 630.837 38.0978 631.393 38.3773C631.948 38.653 632.363 39.0277 632.639 39.5014C632.914 39.9712 633.052 40.5012 633.052 41.0914C633.052 41.5884 632.961 42.0077 632.778 42.3494C632.596 42.6872 632.351 42.959 632.045 43.1648C631.742 43.3667 631.409 43.5142 631.043 43.6074V43.724C631.439 43.7434 631.825 43.8715 632.202 44.1083C632.582 44.3413 632.897 44.6733 633.145 45.1042C633.394 45.5352 633.518 46.0594 633.518 46.6768C633.518 47.2864 633.374 47.8339 633.087 48.3192C632.804 48.8006 632.365 49.1831 631.771 49.4666C631.177 49.7462 630.419 49.8859 629.494 49.8859H624.924ZM626.723 48.3425H629.32C630.182 48.3425 630.798 48.1756 631.171 47.8416C631.544 47.5077 631.73 47.0903 631.73 46.5894C631.73 46.2128 631.635 45.8672 631.445 45.5527C631.255 45.2382 630.983 44.9878 630.63 44.8014C630.281 44.615 629.865 44.5219 629.384 44.5219H626.723V48.3425ZM626.723 43.1182H629.134C629.537 43.1182 629.9 43.0406 630.223 42.8852C630.548 42.7299 630.807 42.5125 630.997 42.2329C631.191 41.9495 631.288 41.6155 631.288 41.2312C631.288 40.738 631.115 40.3245 630.77 39.9906C630.424 39.6567 629.895 39.4897 629.18 39.4897H626.723V43.1182Z" fill="#A7A7A7"/>
<path d="M681.987 41.8369H680.17C680.1 41.4486 679.97 41.1069 679.78 40.8119C679.59 40.5168 679.357 40.2663 679.081 40.0606C678.805 39.8547 678.497 39.6994 678.156 39.5946C677.817 39.4898 677.459 39.4373 677.078 39.4373C676.391 39.4373 675.776 39.6102 675.232 39.9557C674.693 40.3013 674.266 40.808 673.951 41.4758C673.641 42.1437 673.485 42.959 673.485 43.922C673.485 44.8927 673.641 45.7119 673.951 46.3798C674.266 47.0476 674.695 47.5524 675.238 47.8941C675.782 48.2357 676.393 48.4066 677.072 48.4066C677.449 48.4066 677.806 48.3562 678.144 48.2552C678.486 48.1503 678.794 47.997 679.07 47.795C679.345 47.5932 679.578 47.3466 679.768 47.0554C679.962 46.7603 680.097 46.4225 680.17 46.042L681.987 46.0478C681.89 46.6341 681.701 47.1738 681.422 47.6669C681.146 48.1562 680.791 48.5794 680.356 48.9366C679.926 49.2899 679.432 49.5637 678.877 49.7578C678.322 49.952 677.717 50.049 677.06 50.049C676.028 50.049 675.108 49.8044 674.301 49.3152C673.494 48.8221 672.857 48.1173 672.391 47.201C671.929 46.2846 671.698 45.1917 671.698 43.922C671.698 42.6484 671.931 41.5554 672.397 40.6429C672.862 39.7266 673.499 39.0238 674.307 38.5346C675.114 38.0415 676.032 37.7949 677.06 37.7949C677.693 37.7949 678.283 37.8862 678.831 38.0687C679.382 38.2472 679.877 38.5113 680.316 38.8608C680.754 39.2064 681.117 39.6296 681.404 40.1304C681.692 40.6274 681.886 41.1963 681.987 41.8369Z" fill="#A7A7A7"/>
<path d="M723.88 49.8859H720.014V37.958H723.997C725.165 37.958 726.169 38.1968 727.009 38.6744C727.85 39.148 728.492 39.8295 728.936 40.7186C729.387 41.6039 729.612 42.6659 729.612 43.9045C729.612 45.1469 729.387 46.2147 728.929 47.1078C728.478 48.0008 727.829 48.6881 726.975 49.1695C726.121 49.6471 725.09 49.8859 723.88 49.8859ZM721.817 48.3134H723.778C724.687 48.3134 725.438 48.1426 726.046 47.8009C726.647 47.4553 727.098 46.9564 727.392 46.304C727.693 45.6478 727.843 44.848 727.843 43.9045C727.843 42.9687 727.693 42.1747 727.392 41.5224C727.098 40.8701 726.661 40.375 726.073 40.0372C725.486 39.6994 724.755 39.5305 723.887 39.5305H721.817V48.3134Z" fill="#A7A7A7"/>
<path d="M768.812 49.8859V37.958H776.293V39.5072H770.616V43.1415H775.904V44.6849H770.616V48.3367H776.362V49.8859H768.812Z" fill="#A7A7A7"/>
<path d="M816.772 49.8859V37.958H824.171V39.5072H818.576V43.1415H823.638V44.6849H818.576V49.8859H816.772Z" fill="#A7A7A7"/>
<path d="M871.331 41.7263C871.215 41.3729 871.064 41.0564 870.873 40.7769C870.689 40.4935 870.463 40.2527 870.204 40.0547C869.944 39.8528 869.65 39.6994 869.315 39.5946C868.987 39.4898 868.625 39.4373 868.229 39.4373C867.553 39.4373 866.952 39.6102 866.412 39.9557C865.872 40.3013 865.442 40.808 865.127 41.4758C864.82 42.1398 864.663 42.9532 864.663 43.9162C864.663 44.883 864.82 45.7003 865.134 46.3682C865.449 47.0359 865.879 47.5427 866.426 47.8882C866.972 48.2338 867.601 48.4066 868.297 48.4066C868.946 48.4066 869.507 48.2746 869.992 48.0106C870.477 47.7465 870.853 47.3738 871.112 46.8923C871.385 46.407 871.515 45.8362 871.515 45.18L871.98 45.2674H868.571V43.7822H873.257V45.1392C873.257 46.141 873.046 47.0107 872.615 47.7485C872.192 48.4823 871.611 49.0492 870.859 49.4491C870.115 49.849 869.261 50.049 868.297 50.049C867.218 50.049 866.268 49.8005 865.455 49.3035C864.642 48.8066 864.014 48.1018 863.556 47.1894C863.105 46.273 862.873 45.1859 862.873 43.9278C862.873 42.9765 863.01 42.1223 863.269 41.3651C863.536 40.608 863.905 39.9654 864.383 39.4373C864.868 38.9054 865.428 38.4997 866.077 38.2201C866.733 37.9367 867.443 37.7949 868.215 37.7949C868.858 37.7949 869.459 37.89 870.012 38.0803C870.572 38.2705 871.071 38.5404 871.502 38.8899C871.946 39.2394 872.308 39.6548 872.595 40.1363C872.882 40.6138 873.073 41.1439 873.175 41.7263H871.331Z" fill="#A7A7A7"/>
<path d="M911.14 49.8859V37.958H912.936V43.1415H918.88V37.958H920.69V49.8859H918.88V44.6849H912.936V49.8859H911.14Z" fill="#A7A7A7"/>
<path d="M964.632 37.958V49.8859H962.835V37.958H964.632Z" fill="#A7A7A7"/>
<path d="M1012.98 37.958H1014.77V46.4147C1014.77 47.1796 1014.62 47.8339 1014.32 48.3774C1014.02 48.9211 1013.59 49.3365 1013.06 49.6238C1012.51 49.9072 1011.87 50.049 1011.14 50.049C1010.47 50.049 1009.87 49.9267 1009.33 49.6821C1008.8 49.4374 1008.38 49.0822 1008.07 48.6162C1007.76 48.1464 1007.61 47.5756 1007.61 46.904H1009.4C1009.4 47.234 1009.48 47.5193 1009.63 47.7601C1009.78 48.0008 1009.99 48.1891 1010.26 48.325C1010.53 48.457 1010.84 48.5231 1011.19 48.5231C1011.57 48.5231 1011.89 48.4434 1012.16 48.2842C1012.43 48.1212 1012.63 47.8824 1012.77 47.5679C1012.91 47.2534 1012.98 46.869 1012.98 46.4147V37.958Z" fill="#A7A7A7"/>
<path d="M577.733 561.731H575.823L580.114 549.803H582.193L586.484 561.731H584.575L581.203 551.97H581.11L577.733 561.731ZM578.053 557.06H584.249V558.574H578.053V557.06Z" fill="#A7A7A7"/>
<path d="M624.924 561.731V549.803H629.291C630.137 549.803 630.837 549.943 631.393 550.222C631.948 550.498 632.363 550.873 632.639 551.346C632.914 551.816 633.052 552.346 633.052 552.937C633.052 553.433 632.961 553.853 632.778 554.195C632.596 554.532 632.351 554.804 632.045 555.01C631.742 555.212 631.409 555.359 631.043 555.452V555.569C631.439 555.588 631.825 555.717 632.202 555.953C632.582 556.186 632.897 556.518 633.145 556.949C633.394 557.381 633.518 557.905 633.518 558.522C633.518 559.131 633.374 559.679 633.087 560.164C632.804 560.646 632.365 561.028 631.771 561.311C631.177 561.591 630.419 561.731 629.494 561.731H624.924ZM626.723 560.187H629.32C630.182 560.187 630.798 560.02 631.171 559.687C631.544 559.353 631.73 558.935 631.73 558.434C631.73 558.058 631.635 557.712 631.445 557.398C631.255 557.083 630.983 556.833 630.63 556.647C630.281 556.46 629.865 556.367 629.384 556.367H626.723V560.187ZM626.723 554.964H629.134C629.537 554.964 629.9 554.886 630.223 554.731C630.548 554.575 630.807 554.357 630.997 554.078C631.191 553.794 631.288 553.461 631.288 553.076C631.288 552.583 631.115 552.17 630.77 551.836C630.424 551.502 629.895 551.335 629.18 551.335H626.723V554.964Z" fill="#A7A7A7"/>
<path d="M681.987 553.683H680.17C680.1 553.294 679.97 552.952 679.78 552.658C679.59 552.362 679.357 552.112 679.081 551.906C678.805 551.7 678.497 551.545 678.156 551.44C677.817 551.335 677.459 551.283 677.078 551.283C676.391 551.283 675.776 551.456 675.232 551.801C674.693 552.147 674.266 552.654 673.951 553.321C673.641 553.989 673.485 554.805 673.485 555.768C673.485 556.738 673.641 557.557 673.951 558.225C674.266 558.893 674.695 559.398 675.238 559.739C675.782 560.081 676.393 560.252 677.072 560.252C677.449 560.252 677.806 560.201 678.144 560.101C678.486 559.996 678.794 559.843 679.07 559.64C679.345 559.439 679.578 559.192 679.768 558.901C679.962 558.606 680.097 558.268 680.17 557.888L681.987 557.894C681.89 558.479 681.701 559.019 681.422 559.513C681.146 560.002 680.791 560.425 680.356 560.782C679.926 561.136 679.432 561.409 678.877 561.603C678.322 561.798 677.717 561.895 677.06 561.895C676.028 561.895 675.108 561.65 674.301 561.161C673.494 560.667 672.857 559.963 672.391 559.047C671.929 558.13 671.698 557.037 671.698 555.768C671.698 554.494 671.931 553.401 672.397 552.488C672.862 551.573 673.499 550.869 674.307 550.38C675.114 549.887 676.032 549.641 677.06 549.641C677.693 549.641 678.283 549.731 678.831 549.914C679.382 550.093 679.877 550.357 680.316 550.706C680.754 551.052 681.117 551.475 681.404 551.976C681.692 552.473 681.886 553.042 681.987 553.683Z" fill="#A7A7A7"/>
<path d="M723.88 561.731H720.014V549.803H723.997C725.165 549.803 726.169 550.042 727.009 550.52C727.85 550.993 728.492 551.675 728.936 552.564C729.387 553.449 729.612 554.511 729.612 555.749C729.612 556.992 729.387 558.06 728.929 558.953C728.478 559.846 727.829 560.533 726.975 561.015C726.121 561.493 725.09 561.731 723.88 561.731ZM721.817 560.159H723.778C724.687 560.159 725.438 559.988 726.046 559.646C726.647 559.3 727.098 558.801 727.392 558.149C727.693 557.493 727.843 556.693 727.843 555.749C727.843 554.814 727.693 554.02 727.392 553.367C727.098 552.715 726.661 552.22 726.073 551.882C725.486 551.545 724.755 551.376 723.887 551.376H721.817V560.159Z" fill="#A7A7A7"/>
<path d="M768.812 561.731V549.803H776.293V551.352H770.616V554.987H775.904V556.53H770.616V560.182H776.362V561.731H768.812Z" fill="#A7A7A7"/>
<path d="M816.772 561.731V549.803H824.171V551.352H818.576V554.987H823.638V556.53H818.576V561.731H816.772Z" fill="#A7A7A7"/>
<path d="M871.331 553.572C871.215 553.219 871.064 552.902 870.873 552.622C870.689 552.339 870.463 552.098 870.204 551.901C869.944 551.698 869.65 551.545 869.315 551.44C868.987 551.335 868.625 551.283 868.229 551.283C867.553 551.283 866.952 551.456 866.412 551.801C865.872 552.147 865.442 552.654 865.127 553.321C864.82 553.985 864.663 554.799 864.663 555.762C864.663 556.729 864.82 557.546 865.134 558.214C865.449 558.882 865.879 559.388 866.426 559.734C866.972 560.079 867.601 560.252 868.297 560.252C868.946 560.252 869.507 560.12 869.992 559.856C870.477 559.592 870.853 559.219 871.112 558.738C871.385 558.252 871.515 557.682 871.515 557.026L871.98 557.113H868.571V555.628H873.257V556.985C873.257 557.987 873.046 558.857 872.615 559.594C872.192 560.328 871.611 560.895 870.859 561.295C870.115 561.695 869.261 561.895 868.297 561.895C867.218 561.895 866.268 561.646 865.455 561.149C864.642 560.652 864.014 559.947 863.556 559.035C863.105 558.119 862.873 557.031 862.873 555.773C862.873 554.822 863.01 553.968 863.269 553.211C863.536 552.453 863.905 551.811 864.383 551.283C864.868 550.751 865.428 550.345 866.077 550.066C866.733 549.782 867.443 549.641 868.215 549.641C868.858 549.641 869.459 549.736 870.012 549.926C870.572 550.116 871.071 550.386 871.502 550.735C871.946 551.085 872.308 551.5 872.595 551.982C872.882 552.46 873.073 552.989 873.175 553.572H871.331Z" fill="#A7A7A7"/>
<path d="M911.14 561.731V549.803H912.936V554.987H918.88V549.803H920.69V561.731H918.88V556.53H912.936V561.731H911.14Z" fill="#A7A7A7"/>
<path d="M964.632 549.803V561.731H962.835V549.803H964.632Z" fill="#A7A7A7"/>
<path d="M1012.98 549.803H1014.77V558.259C1014.77 559.025 1014.62 559.679 1014.32 560.223C1014.02 560.766 1013.59 561.182 1013.06 561.469C1012.51 561.752 1011.87 561.894 1011.14 561.894C1010.47 561.894 1009.87 561.772 1009.33 561.527C1008.8 561.283 1008.38 560.927 1008.07 560.461C1007.76 559.992 1007.61 559.421 1007.61 558.749H1009.4C1009.4 559.079 1009.48 559.364 1009.63 559.605C1009.78 559.846 1009.99 560.034 1010.26 560.17C1010.53 560.302 1010.84 560.368 1011.19 560.368C1011.57 560.368 1011.89 560.288 1012.16 560.129C1012.43 559.967 1012.63 559.727 1012.77 559.413C1012.91 559.099 1012.98 558.714 1012.98 558.259V549.803Z" fill="#A7A7A7"/>
<path d="M540.983 78.7246H542.294V90.2052H540.786V80.3647L538.343 81.0863L537.966 79.7743L540.983 78.7246Z" fill="#A7A7A7"/>
<path d="M535.525 138.041V136.794L539.575 132.661C540.657 131.579 541.199 130.649 541.199 129.873C541.199 129.228 541.002 128.725 540.608 128.364C540.215 128.003 539.734 127.823 539.165 127.823C538.083 127.823 537.296 128.337 536.804 129.364L535.525 128.61C535.886 127.866 536.383 127.303 537.017 126.921C537.662 126.538 538.373 126.347 539.149 126.347C540.111 126.347 540.947 126.664 541.658 127.298C542.368 127.932 542.723 128.785 542.723 129.856C542.723 131.015 542.04 132.278 540.674 133.645L537.739 136.564H542.937V138.041H535.525Z" fill="#A7A7A7"/>
<path d="M539.988 179.104C540.862 179.268 541.578 179.645 542.136 180.235C542.693 180.826 542.972 181.575 542.972 182.482C542.972 183.597 542.589 184.478 541.824 185.123C541.059 185.768 540.13 186.09 539.037 186.09C538.162 186.09 537.386 185.894 536.708 185.5C536.031 185.095 535.55 184.516 535.266 183.761L536.545 183.007C536.883 184.068 537.714 184.598 539.037 184.598C539.747 184.598 540.327 184.412 540.775 184.04C541.223 183.668 541.447 183.149 541.447 182.482C541.447 181.815 541.223 181.296 540.775 180.924C540.327 180.541 539.747 180.35 539.037 180.35H538.643L538.037 179.415L540.693 175.823H535.594V174.396H542.48V175.741L539.988 179.104Z" fill="#A7A7A7"/>
<path d="M543.236 230.105V231.532H541.842V233.713H540.317V231.532H534.464V230.105L538.579 222.232H540.219L536.104 230.105H540.317V226.857H541.842V230.105H543.236Z" fill="#A7A7A7"/>
<path d="M539.106 274.546C540.188 274.546 541.101 274.868 541.844 275.513C542.598 276.148 542.976 277.028 542.976 278.154C542.976 279.269 542.593 280.149 541.828 280.795C541.063 281.44 540.134 281.762 539.04 281.762C538.166 281.762 537.384 281.554 536.696 281.139C536.007 280.713 535.526 280.1 535.253 279.302L536.548 278.564C536.701 279.122 536.996 279.548 537.434 279.843C537.871 280.128 538.406 280.27 539.04 280.27C539.762 280.27 540.347 280.084 540.795 279.712C541.243 279.34 541.467 278.821 541.467 278.154C541.467 277.487 541.243 276.968 540.795 276.596C540.347 276.213 539.773 276.022 539.073 276.022H535.827L536.253 270.068H542.533V271.495H537.63L537.434 274.546H539.106Z" fill="#A7A7A7"/>
<path d="M539.169 321.873C540.317 321.873 541.263 322.234 542.006 322.956C542.749 323.666 543.121 324.59 543.121 325.728C543.121 326.865 542.749 327.794 542.006 328.516C541.263 329.237 540.317 329.598 539.169 329.598C538.011 329.598 537.06 329.237 536.316 328.516C535.584 327.794 535.218 326.865 535.218 325.728C535.218 324.842 535.447 324.076 535.906 323.431L539.596 317.904H541.334L538.628 321.906C538.869 321.884 539.049 321.873 539.169 321.873ZM537.398 327.482C537.858 327.92 538.448 328.138 539.169 328.138C539.891 328.138 540.475 327.92 540.924 327.482C541.383 327.034 541.612 326.449 541.612 325.728C541.612 325.006 541.383 324.426 540.924 323.989C540.475 323.552 539.891 323.333 539.169 323.333C538.437 323.333 537.847 323.552 537.398 323.989C536.95 324.426 536.726 325.006 536.726 325.728C536.726 326.449 536.95 327.034 537.398 327.482Z" fill="#A7A7A7"/>
<path d="M535.838 365.74H543.003V367.102L538.822 377.221H537.232L541.38 367.184H535.838V365.74Z" fill="#A7A7A7"/>
<path d="M541.176 419.12C541.733 419.404 542.171 419.787 542.488 420.268C542.805 420.749 542.963 421.296 542.963 421.908C542.963 422.958 542.597 423.783 541.865 424.385C541.132 424.975 540.187 425.27 539.028 425.27C537.88 425.27 536.94 424.975 536.208 424.385C535.476 423.783 535.109 422.958 535.109 421.908C535.109 421.296 535.268 420.749 535.585 420.268C535.902 419.787 536.339 419.404 536.897 419.12C535.957 418.53 535.486 417.693 535.486 416.611C535.486 415.572 535.831 414.774 536.519 414.216C537.219 413.648 538.055 413.363 539.028 413.363C540.012 413.363 540.848 413.648 541.537 414.216C542.236 414.774 542.586 415.572 542.586 416.611C542.586 417.693 542.116 418.53 541.176 419.12ZM539.028 414.823C538.449 414.823 537.962 414.976 537.569 415.282C537.186 415.588 536.995 416.042 536.995 416.643C536.995 417.223 537.192 417.677 537.585 418.005C537.979 418.322 538.46 418.48 539.028 418.48C539.596 418.48 540.077 418.322 540.471 418.005C540.864 417.677 541.061 417.223 541.061 416.643C541.061 416.042 540.87 415.588 540.487 415.282C540.105 414.976 539.618 414.823 539.028 414.823ZM539.028 423.811C539.76 423.811 540.345 423.641 540.782 423.302C541.231 422.952 541.455 422.455 541.455 421.81C541.455 421.176 541.231 420.689 540.782 420.35C540.345 420 539.76 419.825 539.028 419.825C538.307 419.825 537.722 420 537.274 420.35C536.836 420.689 536.618 421.176 536.618 421.81C536.618 422.455 536.836 422.952 537.274 423.302C537.722 423.641 538.307 423.811 539.028 423.811Z" fill="#A7A7A7"/>
<path d="M543.121 465.053C543.121 465.939 542.886 466.71 542.416 467.366H542.432L538.727 472.893H537.005L539.727 468.875C539.486 468.897 539.3 468.908 539.169 468.908C538.011 468.908 537.06 468.552 536.316 467.842C535.584 467.12 535.218 466.191 535.218 465.053C535.218 463.916 535.584 462.992 536.316 462.282C537.06 461.56 538.011 461.199 539.169 461.199C540.328 461.199 541.273 461.56 542.006 462.282C542.749 462.992 543.121 463.916 543.121 465.053ZM537.398 463.315C536.95 463.752 536.726 464.332 536.726 465.053C536.726 465.775 536.95 466.36 537.398 466.808C537.858 467.246 538.448 467.464 539.169 467.464C539.891 467.464 540.475 467.246 540.924 466.808C541.383 466.36 541.612 465.775 541.612 465.053C541.612 464.332 541.388 463.752 540.94 463.315C540.492 462.878 539.902 462.659 539.169 462.659C538.448 462.659 537.858 462.878 537.398 463.315Z" fill="#A7A7A7"/>
<path d="M530.656 509.248H531.967V520.729H530.459V510.888L528.016 511.61L527.639 510.298L530.656 509.248ZM541.681 519.319C540.905 520.401 539.818 520.942 538.419 520.942C537.019 520.942 535.932 520.401 535.156 519.319C534.38 518.236 533.992 516.793 533.992 514.989C533.992 513.185 534.38 511.741 535.156 510.659C535.932 509.576 537.019 509.035 538.419 509.035C539.818 509.035 540.905 509.576 541.681 510.659C542.457 511.741 542.846 513.185 542.846 514.989C542.846 516.793 542.457 518.236 541.681 519.319ZM536.271 518.285C536.773 519.062 537.489 519.45 538.419 519.45C539.348 519.45 540.064 519.062 540.566 518.285C541.08 517.509 541.337 516.41 541.337 514.989C541.337 513.567 541.08 512.468 540.566 511.692C540.064 510.905 539.348 510.511 538.419 510.511C537.489 510.511 536.773 510.899 536.271 511.676C535.768 512.452 535.516 513.556 535.516 514.989C535.516 516.41 535.768 517.509 536.271 518.285Z" fill="#A7A7A7"/>
<path d="M1052.38 78.7246H1053.69V90.2052H1052.18V80.3647L1049.74 81.0863L1049.36 79.7743L1052.38 78.7246Z" fill="#A7A7A7"/>
<path d="M1049.72 138.041V136.794L1053.77 132.661C1054.85 131.579 1055.39 130.649 1055.39 129.873C1055.39 129.228 1055.2 128.725 1054.8 128.364C1054.41 128.003 1053.93 127.823 1053.36 127.823C1052.28 127.823 1051.49 128.337 1051 129.364L1049.72 128.61C1050.08 127.866 1050.58 127.303 1051.21 126.921C1051.86 126.538 1052.57 126.347 1053.34 126.347C1054.31 126.347 1055.15 126.664 1055.86 127.298C1056.57 127.932 1056.92 128.785 1056.92 129.856C1056.92 131.015 1056.24 132.278 1054.87 133.645L1051.94 136.564H1057.13V138.041H1049.72Z" fill="#A7A7A7"/>
<path d="M1054.31 179.104C1055.19 179.268 1055.9 179.645 1056.46 180.235C1057.02 180.826 1057.3 181.575 1057.3 182.482C1057.3 183.597 1056.92 184.478 1056.15 185.123C1055.39 185.768 1054.46 186.09 1053.36 186.09C1052.49 186.09 1051.71 185.894 1051.03 185.5C1050.36 185.095 1049.87 184.516 1049.59 183.761L1050.87 183.007C1051.21 184.068 1052.04 184.598 1053.36 184.598C1054.07 184.598 1054.65 184.412 1055.1 184.04C1055.55 183.668 1055.77 183.149 1055.77 182.482C1055.77 181.815 1055.55 181.296 1055.1 180.924C1054.65 180.541 1054.07 180.35 1053.36 180.35H1052.97L1052.36 179.415L1055.02 175.823H1049.92V174.396H1056.81V175.741L1054.31 179.104Z" fill="#A7A7A7"/>
<path d="M1058.3 230.105V231.532H1056.9V233.713H1055.38V231.532H1049.52V230.105L1053.64 222.232H1055.28L1051.16 230.105H1055.38V226.857H1056.9V230.105H1058.3Z" fill="#A7A7A7"/>
<path d="M1053.56 274.546C1054.64 274.546 1055.56 274.868 1056.29 275.513C1057.05 276.148 1057.43 277.028 1057.43 278.154C1057.43 279.269 1057.05 280.149 1056.28 280.795C1055.52 281.44 1054.59 281.762 1053.49 281.762C1052.62 281.762 1051.84 281.554 1051.15 281.139C1050.46 280.713 1049.98 280.1 1049.71 279.302L1051 278.564C1051.16 279.122 1051.45 279.548 1051.89 279.843C1052.32 280.128 1052.86 280.27 1053.49 280.27C1054.22 280.27 1054.8 280.084 1055.25 279.712C1055.69 279.34 1055.92 278.821 1055.92 278.154C1055.92 277.487 1055.69 276.968 1055.25 276.596C1054.8 276.213 1054.22 276.022 1053.53 276.022H1050.28L1050.71 270.068H1056.98V271.495H1052.09L1051.89 274.546H1053.56Z" fill="#A7A7A7"/>
<path d="M1053.54 321.873C1054.69 321.873 1055.64 322.234 1056.38 322.956C1057.12 323.666 1057.5 324.59 1057.5 325.728C1057.5 326.865 1057.12 327.794 1056.38 328.516C1055.64 329.237 1054.69 329.598 1053.54 329.598C1052.39 329.598 1051.43 329.237 1050.69 328.516C1049.95 327.794 1049.59 326.865 1049.59 325.728C1049.59 324.842 1049.82 324.076 1050.28 323.431L1053.97 317.904H1055.71L1053 321.906C1053.24 321.884 1053.42 321.873 1053.54 321.873ZM1051.77 327.482C1052.23 327.92 1052.82 328.138 1053.54 328.138C1054.26 328.138 1054.85 327.92 1055.3 327.482C1055.75 327.034 1055.99 326.449 1055.99 325.728C1055.99 325.006 1055.75 324.426 1055.3 323.989C1054.85 323.552 1054.26 323.333 1053.54 323.333C1052.81 323.333 1052.22 323.552 1051.77 323.989C1051.32 324.426 1051.1 325.006 1051.1 325.728C1051.1 326.449 1051.32 327.034 1051.77 327.482Z" fill="#A7A7A7"/>
<path d="M1049.43 365.74H1056.59V367.102L1052.41 377.221H1050.82L1054.97 367.184H1049.43V365.74Z" fill="#A7A7A7"/>
<path d="M1055.82 419.12C1056.38 419.404 1056.81 419.787 1057.13 420.268C1057.45 420.749 1057.61 421.296 1057.61 421.908C1057.61 422.958 1057.24 423.783 1056.51 424.385C1055.77 424.975 1054.83 425.27 1053.67 425.27C1052.52 425.27 1051.59 424.975 1050.86 424.385C1050.12 423.783 1049.76 422.958 1049.76 421.908C1049.76 421.296 1049.91 420.749 1050.23 420.268C1050.55 419.787 1050.99 419.404 1051.54 419.12C1050.6 418.53 1050.13 417.693 1050.13 416.611C1050.13 415.572 1050.47 414.774 1051.16 414.216C1051.87 413.648 1052.7 413.363 1053.67 413.363C1054.65 413.363 1055.49 413.648 1056.18 414.216C1056.88 414.774 1057.23 415.572 1057.23 416.611C1057.23 417.693 1056.76 418.53 1055.82 419.12ZM1053.67 414.823C1053.1 414.823 1052.6 414.976 1052.22 415.282C1051.83 415.588 1051.64 416.042 1051.64 416.643C1051.64 417.223 1051.84 417.677 1052.23 418.005C1052.63 418.322 1053.1 418.48 1053.67 418.48C1054.24 418.48 1054.72 418.322 1055.12 418.005C1055.51 417.677 1055.71 417.223 1055.71 416.643C1055.71 416.042 1055.52 415.588 1055.13 415.282C1054.75 414.976 1054.26 414.823 1053.67 414.823ZM1053.67 423.811C1054.41 423.811 1054.99 423.641 1055.43 423.302C1055.88 422.952 1056.1 422.455 1056.1 421.81C1056.1 421.176 1055.88 420.689 1055.43 420.35C1054.99 420 1054.41 419.825 1053.67 419.825C1052.95 419.825 1052.37 420 1051.92 420.35C1051.48 420.689 1051.27 421.176 1051.27 421.81C1051.27 422.455 1051.48 422.952 1051.92 423.302C1052.37 423.641 1052.95 423.811 1053.67 423.811Z" fill="#A7A7A7"/>
<path d="M1057.5 465.053C1057.5 465.939 1057.26 466.71 1056.79 467.366H1056.81L1053.1 472.893H1051.37L1054.1 468.875C1053.86 468.897 1053.67 468.908 1053.54 468.908C1052.39 468.908 1051.43 468.552 1050.69 467.842C1049.95 467.12 1049.59 466.191 1049.59 465.053C1049.59 463.916 1049.95 462.992 1050.69 462.282C1051.43 461.56 1052.39 461.199 1053.54 461.199C1054.7 461.199 1055.64 461.56 1056.38 462.282C1057.12 462.992 1057.5 463.916 1057.5 465.053ZM1051.77 463.315C1051.32 463.752 1051.1 464.332 1051.1 465.053C1051.1 465.775 1051.32 466.36 1051.77 466.808C1052.23 467.246 1052.82 467.464 1053.54 467.464C1054.26 467.464 1054.85 467.246 1055.3 466.808C1055.75 466.36 1055.99 465.775 1055.99 465.053C1055.99 464.332 1055.76 463.752 1055.31 463.315C1054.87 462.878 1054.27 462.659 1053.54 462.659C1052.82 462.659 1052.23 462.878 1051.77 463.315Z" fill="#A7A7A7"/>
<path d="M1052.38 509.248H1053.69V520.729H1052.18V510.888L1049.74 511.61L1049.36 510.298L1052.38 509.248ZM1063.41 519.319C1062.63 520.401 1061.54 520.942 1060.14 520.942C1058.74 520.942 1057.65 520.401 1056.88 519.319C1056.1 518.236 1055.71 516.793 1055.71 514.989C1055.71 513.185 1056.1 511.741 1056.88 510.659C1057.65 509.576 1058.74 509.035 1060.14 509.035C1061.54 509.035 1062.63 509.576 1063.41 510.659C1064.18 511.741 1064.57 513.185 1064.57 514.989C1064.57 516.793 1064.18 518.236 1063.41 519.319ZM1057.99 518.285C1058.49 519.062 1059.21 519.45 1060.14 519.45C1061.07 519.45 1061.79 519.062 1062.29 518.285C1062.8 517.509 1063.06 516.41 1063.06 514.989C1063.06 513.567 1062.8 512.468 1062.29 511.692C1061.79 510.905 1061.07 510.511 1060.14 510.511C1059.21 510.511 1058.49 510.899 1057.99 511.676C1057.49 512.452 1057.24 513.556 1057.24 514.989C1057.24 516.41 1057.49 517.509 1057.99 518.285Z" fill="#A7A7A7"/>
<mask id="mask0_129_16249" style="mask-type:luminance" maskUnits="userSpaceOnUse" x="557" y="60" width="479" height="480">
<path d="M1034.1 60.8203H558.611C557.857 60.8203 557.245 61.4322 557.245 62.1871V537.813C557.245 538.568 557.857 539.18 558.611 539.18H1034.1C1034.86 539.18 1035.47 538.568 1035.47 537.813V62.1871C1035.47 61.4322 1034.86 60.8203 1034.1 60.8203Z" fill="white"/>
</mask>
<g mask="url(#mask0_129_16249)">
<path d="M605.067 60.8203H557.245V108.656H605.067V60.8203Z" fill="#D0D5DD"/>
<path d="M597.895 84.7387C597.895 75.492 590.401 67.9961 581.157 67.9961C571.913 67.9961 564.419 75.492 564.419 84.7387C564.419 93.9854 571.913 101.481 581.157 101.481C590.401 101.481 597.895 93.9854 597.895 84.7387Z" fill="white" stroke="#D7DCE2"/>
<path d="M587.988 84.7278C587.988 86.4827 587.41 87.9991 586.257 89.277L587.649 90.7059L586.125 92.0781L584.676 90.5931C583.571 91.2321 582.398 91.5519 581.156 91.5519C579.262 91.5519 577.649 90.8938 576.319 89.5776C574.989 88.2492 574.324 86.633 574.324 84.7278C574.324 82.8232 574.989 81.2125 576.319 79.897C577.649 78.5685 579.262 77.9043 581.156 77.9043C583.05 77.9043 584.663 78.5685 585.993 79.897C587.323 81.2125 587.988 82.8232 587.988 84.7278ZM581.156 89.4464C581.858 89.4464 582.518 89.3022 583.132 89.0139L580.723 86.5517L582.248 85.1788L584.769 87.7544C585.472 86.8899 585.823 85.8806 585.823 84.7278C585.823 83.387 585.372 82.2656 584.468 81.3628C583.565 80.4608 582.461 80.0098 581.156 80.0098C579.851 80.0098 578.747 80.4608 577.844 81.3628C576.94 82.2656 576.489 83.387 576.489 84.7278C576.489 86.0685 576.94 87.1906 577.844 88.0927C578.747 88.9947 579.851 89.4464 581.156 89.4464Z" fill="#4D4D4D"/>
<path d="M605.067 156.492H557.245V204.328H605.067V156.492Z" fill="#D0D5DD"/>
<path d="M605.067 252.164H557.245V300H605.067V252.164Z" fill="#D0D5DD"/>
<path d="M605.067 347.836H557.245V395.672H605.067V347.836Z" fill="#D0D5DD"/>
<path d="M605.067 443.508H557.245V491.344H605.067V443.508Z" fill="#D0D5DD"/>
<path d="M1035.47 108.656H987.648V156.492H1035.47V108.656Z" fill="#D0D5DD"/>
<path d="M1028.3 132.575C1028.3 123.328 1020.8 115.832 1011.56 115.832C1002.32 115.832 994.822 123.328 994.822 132.575C994.822 141.821 1002.32 149.317 1011.56 149.317C1020.8 149.317 1028.3 141.821 1028.3 132.575Z" fill="white" stroke="#D7DCE2"/>
<path d="M1018.39 132.564C1018.39 134.319 1017.81 135.835 1016.66 137.113L1018.05 138.542L1016.53 139.914L1015.08 138.429C1013.97 139.068 1012.8 139.388 1011.56 139.388C1009.66 139.388 1008.05 138.73 1006.72 137.414C1005.39 136.085 1004.73 134.469 1004.73 132.564C1004.73 130.659 1005.39 129.048 1006.72 127.733C1008.05 126.404 1009.66 125.74 1011.56 125.74C1013.45 125.74 1015.06 126.404 1016.4 127.733C1017.72 129.048 1018.39 130.659 1018.39 132.564ZM1011.56 137.282C1012.26 137.282 1012.92 137.138 1013.53 136.85L1011.12 134.388L1012.65 133.015L1015.17 135.59C1015.87 134.726 1016.23 133.717 1016.23 132.564C1016.23 131.223 1015.78 130.102 1014.87 129.199C1013.97 128.297 1012.87 127.846 1011.56 127.846C1010.26 127.846 1009.15 128.297 1008.25 129.199C1007.35 130.102 1006.89 131.223 1006.89 132.564C1006.89 133.904 1007.35 135.027 1008.25 135.929C1009.15 136.831 1010.26 137.282 1011.56 137.282Z" fill="#4D4D4D"/>
<path d="M1035.47 204.328H987.648V252.164H1035.47V204.328Z" fill="#D0D5DD"/>
<path d="M1035.47 300H987.648V347.836H1035.47V300Z" fill="#D0D5DD"/>
<path d="M1035.47 395.672H987.648V443.508H1035.47V395.672Z" fill="#D0D5DD"/>
<path d="M1035.47 491.344H987.648V539.18H1035.47V491.344Z" fill="#D0D5DD"/>
<path d="M700.712 60.8203H652.89V108.656H700.712V60.8203Z" fill="#D0D5DD"/>
<path d="M700.712 156.492H652.89V204.328H700.712V156.492Z" fill="#D0D5DD"/>
<path d="M693.198 180.411C693.198 171.353 685.857 164.01 676.802 164.01C667.746 164.01 660.405 171.353 660.405 180.411C660.405 189.469 667.746 196.812 676.802 196.812C685.857 196.812 693.198 189.469 693.198 180.411Z" stroke="#94A0B2" stroke-width="2" stroke-dasharray="10 10"/>
<path d="M700.712 252.164H652.89V300H700.712V252.164Z" fill="#D0D5DD"/>
<path d="M700.712 347.836H652.89V395.672H700.712V347.836Z" fill="#D0D5DD"/>
<path d="M693.198 371.754C693.198 362.696 685.857 355.354 676.802 355.354C667.746 355.354 660.405 362.696 660.405 371.754C660.405 380.812 667.746 388.155 676.802 388.155C685.857 388.155 693.198 380.812 693.198 371.754Z" stroke="#94A0B2" stroke-width="2" stroke-dasharray="10 10"/>
<path d="M700.712 443.508H652.89V491.344H700.712V443.508Z" fill="#D0D5DD"/>
<path d="M652.89 108.656H605.067V156.492H652.89V108.656Z" fill="#D0D5DD"/>
<path d="M645.717 132.575C645.717 123.328 638.223 115.832 628.979 115.832C619.735 115.832 612.241 123.328 612.241 132.575C612.241 141.821 619.735 149.317 628.979 149.317C638.223 149.317 645.717 141.821 645.717 132.575Z" fill="#333333" stroke="#000214"/>
<path d="M652.89 204.328H605.067V252.164H652.89V204.328Z" fill="#D0D5DD"/>
<path d="M652.89 300H605.067V347.836H652.89V300Z" fill="#D0D5DD"/>
<path d="M652.89 395.672H605.067V443.508H652.89V395.672Z" fill="#D0D5DD"/>
<path d="M652.89 491.344H605.067V539.18H652.89V491.344Z" fill="#D0D5DD"/>
<path d="M645.717 515.262C645.717 506.015 638.223 498.52 628.979 498.52C619.735 498.52 612.241 506.015 612.241 515.262C612.241 524.509 619.735 532.005 628.979 532.005C638.223 532.005 645.717 524.509 645.717 515.262Z" fill="#333333" stroke="#000214"/>
<path d="M796.359 60.8203H748.537V108.656H796.359V60.8203Z" fill="#D0D5DD"/>
<path d="M796.359 156.492H748.537V204.328H796.359V156.492Z" fill="#D0D5DD"/>
<path d="M796.359 252.164H748.537V300H796.359V252.164Z" fill="#D0D5DD"/>
<path d="M788.844 276.083C788.844 267.025 781.503 259.682 772.448 259.682C763.393 259.682 756.052 267.025 756.052 276.083C756.052 285.141 763.393 292.483 772.448 292.483C781.503 292.483 788.844 285.141 788.844 276.083Z" stroke="#94A0B2" stroke-width="2" stroke-dasharray="10 10"/>
<path d="M796.359 347.836H748.537V395.672H796.359V347.836Z" fill="#D0D5DD"/>
<path d="M796.359 443.508H748.537V491.344H796.359V443.508Z" fill="#D0D5DD"/>
<path d="M788.844 467.426C788.844 458.368 781.503 451.025 772.448 451.025C763.393 451.025 756.052 458.368 756.052 467.426C756.052 476.484 763.393 483.827 772.448 483.827C781.503 483.827 788.844 476.484 788.844 467.426Z" stroke="#94A0B2" stroke-width="2" stroke-dasharray="10 10"/>
<path d="M748.537 108.656H700.715V156.492H748.537V108.656Z" fill="#D0D5DD"/>
<path d="M748.537 204.328H700.715V252.164H748.537V204.328Z" fill="#D0D5DD"/>
<g opacity="0.5">
<path d="M741.363 228.247C741.363 219 733.87 211.504 724.626 211.504C715.381 211.504 707.888 219 707.888 228.247C707.888 237.493 715.381 244.989 724.626 244.989C733.87 244.989 741.363 237.493 741.363 228.247Z" fill="#333333" stroke="#000214"/>
</g>
<path d="M748.537 300H700.715V347.836H748.537V300Z" fill="#D0D5DD"/>
<g opacity="0.5">
<path d="M741.363 323.918C741.363 314.672 733.87 307.176 724.626 307.176C715.381 307.176 707.888 314.672 707.888 323.918C707.888 333.165 715.381 340.661 724.626 340.661C733.87 340.661 741.363 333.165 741.363 323.918Z" fill="#333333" stroke="#000214"/>
</g>
<path d="M748.537 395.672H700.715V443.508H748.537V395.672Z" fill="#D0D5DD"/>
<g opacity="0.5">
<path d="M741.363 419.59C741.363 410.344 733.87 402.848 724.626 402.848C715.381 402.848 707.888 410.344 707.888 419.59C707.888 428.837 715.381 436.333 724.626 436.333C733.87 436.333 741.363 428.837 741.363 419.59Z" fill="#333333" stroke="#000214"/>
</g>
<path d="M748.537 491.344H700.715V539.18H748.537V491.344Z" fill="#D0D5DD"/>
<path d="M892.004 60.8203H844.182V108.656H892.004V60.8203Z" fill="#D0D5DD"/>
<path d="M884.83 84.7387C884.83 75.492 877.336 67.9961 868.092 67.9961C858.848 67.9961 851.354 75.492 851.354 84.7387C851.354 93.9854 858.848 101.481 868.092 101.481C877.336 101.481 884.83 93.9854 884.83 84.7387Z" fill="white" stroke="#D7DCE2"/>
<path d="M874.924 84.7278C874.924 86.4827 874.344 87.9991 873.189 89.277L874.583 90.7059L873.059 92.0781L871.611 90.5931C870.504 91.2321 869.336 91.5519 868.093 91.5519C866.193 91.5519 864.581 90.8938 863.256 89.5776C861.923 88.2492 861.261 86.633 861.261 84.7278C861.261 82.8232 861.923 81.2125 863.256 79.897C864.581 78.5685 866.193 77.9043 868.093 77.9043C869.985 77.9043 871.597 78.5685 872.929 79.897C874.255 81.2125 874.924 82.8232 874.924 84.7278ZM868.093 89.4464C868.796 89.4464 869.452 89.3022 870.067 89.0139L867.655 86.5517L869.179 85.1788L871.706 87.7544C872.403 86.8899 872.759 85.8806 872.759 84.7278C872.759 83.387 872.308 82.2656 871.406 81.3628C870.497 80.4608 869.397 80.0098 868.093 80.0098C866.788 80.0098 865.681 80.4608 864.779 81.3628C863.877 82.2656 863.426 83.387 863.426 84.7278C863.426 86.0685 863.877 87.1906 864.779 88.0927C865.681 88.9947 866.788 89.4464 868.093 89.4464Z" fill="#4D4D4D"/>
<path d="M892.004 156.492H844.182V204.328H892.004V156.492Z" fill="#D0D5DD"/>
<path d="M884.83 180.411C884.83 171.164 877.336 163.668 868.092 163.668C858.848 163.668 851.354 171.164 851.354 180.411C851.354 189.657 858.848 197.153 868.092 197.153C877.336 197.153 884.83 189.657 884.83 180.411Z" fill="white" stroke="#D7DCE2"/>
<path d="M874.924 180.4C874.924 182.155 874.344 183.671 873.189 184.949L874.583 186.378L873.059 187.75L871.611 186.265C870.504 186.904 869.336 187.224 868.093 187.224C866.193 187.224 864.581 186.566 863.256 185.25C861.923 183.921 861.261 182.305 861.261 180.4C861.261 178.495 861.923 176.884 863.256 175.569C864.581 174.24 866.193 173.576 868.093 173.576C869.985 173.576 871.597 174.24 872.929 175.569C874.255 176.884 874.924 178.495 874.924 180.4ZM868.093 185.118C868.796 185.118 869.452 184.974 870.067 184.686L867.655 182.224L869.179 180.851L871.706 183.426C872.403 182.562 872.759 181.552 872.759 180.4C872.759 179.059 872.308 177.937 871.406 177.035C870.497 176.133 869.397 175.682 868.093 175.682C866.788 175.682 865.681 176.133 864.779 177.035C863.877 177.937 863.426 179.059 863.426 180.4C863.426 181.74 863.877 182.863 864.779 183.765C865.681 184.667 866.788 185.118 868.093 185.118Z" fill="#4D4D4D"/>
<path d="M892.004 252.164H844.182V300H892.004V252.164Z" fill="#D0D5DD"/>
<path d="M892.004 347.836H844.182V395.672H892.004V347.836Z" fill="#D0D5DD"/>
<path d="M892.004 443.508H844.182V491.344H892.004V443.508Z" fill="#D0D5DD"/>
<path d="M844.182 108.656H796.359V156.492H844.182V108.656Z" fill="#D0D5DD"/>
<path d="M844.182 204.328H796.359V252.164H844.182V204.328Z" fill="#D0D5DD"/>
<path d="M844.182 300H796.359V347.836H844.182V300Z" fill="#D0D5DD"/>
<path d="M837.008 323.918C837.008 314.672 829.514 307.176 820.27 307.176C811.026 307.176 803.532 314.672 803.532 323.918C803.532 333.165 811.026 340.661 820.27 340.661C829.514 340.661 837.008 333.165 837.008 323.918Z" fill="#333333" stroke="#000214"/>
<path d="M844.182 395.672H796.359V443.508H844.182V395.672Z" fill="#D0D5DD"/>
<g opacity="0.5">
<path d="M837.008 419.59C837.008 410.344 829.514 402.848 820.27 402.848C811.026 402.848 803.532 410.344 803.532 419.59C803.532 428.837 811.026 436.333 820.27 436.333C829.514 436.333 837.008 428.837 837.008 419.59Z" fill="#333333" stroke="#000214"/>
</g>
<path d="M844.182 491.344H796.359V539.18H844.182V491.344Z" fill="#D0D5DD"/>
<path d="M987.649 60.8203H939.826V108.656H987.649V60.8203Z" fill="#D0D5DD"/>
<path d="M980.476 84.7387C980.476 75.492 972.982 67.9961 963.738 67.9961C954.494 67.9961 947 75.492 947 84.7387C947 93.9854 954.494 101.481 963.738 101.481C972.982 101.481 980.476 93.9854 980.476 84.7387Z" fill="white" stroke="#D7DCE2"/>
<path d="M970.569 84.7278C970.569 86.4827 969.988 87.9991 968.834 89.277L970.227 90.7059L968.704 92.0781L967.255 90.5931C966.149 91.2321 964.98 91.5519 963.737 91.5519C961.838 91.5519 960.225 90.8938 958.9 89.5776C957.568 88.2492 956.905 86.633 956.905 84.7278C956.905 82.8232 957.568 81.2125 958.9 79.897C960.225 78.5685 961.838 77.9043 963.737 77.9043C965.629 77.9043 967.242 78.5685 968.574 79.897C969.899 81.2125 970.569 82.8232 970.569 84.7278ZM963.737 89.4464C964.441 89.4464 965.097 89.3022 965.711 89.0139L963.3 86.5517L964.823 85.1788L967.351 87.7544C968.048 86.8899 968.403 85.8806 968.403 84.7278C968.403 83.387 967.952 82.2656 967.05 81.3628C966.142 80.4608 965.042 80.0098 963.737 80.0098C962.432 80.0098 961.325 80.4608 960.424 81.3628C959.522 82.2656 959.071 83.387 959.071 84.7278C959.071 86.0685 959.522 87.1906 960.424 88.0927C961.325 88.9947 962.432 89.4464 963.737 89.4464Z" fill="#4D4D4D"/>
<path d="M987.649 156.492H939.826V204.328H987.649V156.492Z" fill="#D0D5DD"/>
<path d="M980.476 180.411C980.476 171.164 972.982 163.668 963.738 163.668C954.494 163.668 947 171.164 947 180.411C947 189.657 954.494 197.153 963.738 197.153C972.982 197.153 980.476 189.657 980.476 180.411Z" fill="white" stroke="#D7DCE2"/>
<path d="M970.569 180.4C970.569 182.155 969.988 183.671 968.834 184.949L970.227 186.378L968.704 187.75L967.255 186.265C966.149 186.904 964.98 187.224 963.737 187.224C961.838 187.224 960.225 186.566 958.9 185.25C957.568 183.921 956.905 182.305 956.905 180.4C956.905 178.495 957.568 176.884 958.9 175.569C960.225 174.24 961.838 173.576 963.737 173.576C965.629 173.576 967.242 174.24 968.574 175.569C969.899 176.884 970.569 178.495 970.569 180.4ZM963.737 185.118C964.441 185.118 965.097 184.974 965.711 184.686L963.3 182.224L964.823 180.851L967.351 183.426C968.048 182.562 968.403 181.552 968.403 180.4C968.403 179.059 967.952 177.937 967.05 177.035C966.142 176.133 965.042 175.682 963.737 175.682C962.432 175.682 961.325 176.133 960.424 177.035C959.522 177.937 959.071 179.059 959.071 180.4C959.071 181.74 959.522 182.863 960.424 183.765C961.325 184.667 962.432 185.118 963.737 185.118Z" fill="#4D4D4D"/>
<path d="M987.649 252.164H939.826V300H987.649V252.164Z" fill="#D0D5DD"/>
<path d="M987.649 252.164H939.826V300H987.649V252.164Z" fill="#D0D5DD"/>
<path d="M980.133 276.083C980.133 267.025 972.792 259.682 963.737 259.682C954.682 259.682 947.341 267.025 947.341 276.083C947.341 285.141 954.682 292.483 963.737 292.483C972.792 292.483 980.133 285.141 980.133 276.083Z" stroke="#94A0B2" stroke-width="2" stroke-dasharray="10 10"/>
<path d="M987.649 347.836H939.826V395.672H987.649V347.836Z" fill="#D0D5DD"/>
<path d="M987.649 443.508H939.826V491.344H987.649V443.508Z" fill="#D0D5DD"/>
<path d="M980.476 467.426C980.476 458.18 972.982 450.684 963.738 450.684C954.494 450.684 947 458.18 947 467.426C947 476.673 954.494 484.169 963.738 484.169C972.982 484.169 980.476 476.673 980.476 467.426Z" fill="#333333" stroke="#000214"/>
<path d="M939.826 108.656H892.004V156.492H939.826V108.656Z" fill="#D0D5DD"/>
<path d="M932.653 132.575C932.653 123.328 925.16 115.832 915.916 115.832C906.672 115.832 899.178 123.328 899.178 132.575C899.178 141.821 906.672 149.317 915.916 149.317C925.16 149.317 932.653 141.821 932.653 132.575Z" fill="white" stroke="#D7DCE2"/>
<path d="M922.747 132.564C922.747 134.319 922.166 135.835 921.011 137.113L922.405 138.542L920.881 139.914L919.433 138.429C918.326 139.068 917.158 139.388 915.915 139.388C914.016 139.388 912.403 138.73 911.078 137.414C909.746 136.085 909.083 134.469 909.083 132.564C909.083 130.659 909.746 129.048 911.078 127.733C912.403 126.404 914.016 125.74 915.915 125.74C917.807 125.74 919.419 126.404 920.752 127.733C922.077 129.048 922.747 130.659 922.747 132.564ZM915.915 137.282C916.618 137.282 917.274 137.138 917.889 136.85L915.478 134.388L917.001 133.015L919.529 135.59C920.226 134.726 920.581 133.717 920.581 132.564C920.581 131.223 920.13 130.102 919.228 129.199C918.32 128.297 917.22 127.846 915.915 127.846C914.61 127.846 913.503 128.297 912.601 129.199C911.7 130.102 911.249 131.223 911.249 132.564C911.249 133.904 911.7 135.027 912.601 135.929C913.503 136.831 914.61 137.282 915.915 137.282Z" fill="#4D4D4D"/>
<path d="M939.826 204.328H892.004V252.164H939.826V204.328Z" fill="#D0D5DD"/>
<path opacity="0.5" d="M932.653 228.247C932.653 219 925.16 211.504 915.916 211.504C906.672 211.504 899.178 219 899.178 228.247C899.178 237.493 906.672 244.989 915.916 244.989C925.16 244.989 932.653 237.493 932.653 228.247Z" fill="#333333" stroke="#000214"/>
<path d="M939.826 300H892.004V347.836H939.826V300Z" fill="#D0D5DD"/>
<path d="M939.826 395.672H892.004V443.508H939.826V395.672Z" fill="#D0D5DD"/>
<path d="M932.653 419.59C932.653 410.344 925.16 402.848 915.916 402.848C906.672 402.848 899.178 410.344 899.178 419.59C899.178 428.837 906.672 436.333 915.916 436.333C925.16 436.333 932.653 428.837 932.653 419.59Z" fill="#333333" stroke="#000214"/>
<path d="M939.826 491.344H892.004V539.18H939.826V491.344Z" fill="#D0D5DD"/>
<path d="M1035.47 60.8203H987.648V108.656H1035.47V60.8203Z" fill="white"/>
<path d="M1035.47 156.492H987.648V204.328H1035.47V156.492Z" fill="white"/>
<path d="M1035.47 252.164H987.648V300H1035.47V252.164Z" fill="white"/>
<path d="M1035.47 347.836H987.648V395.672H1035.47V347.836Z" fill="white"/>
<path d="M1035.47 443.508H987.648V491.344H1035.47V443.508Z" fill="white"/>
<path d="M987.649 108.656H939.826V156.492H987.649V108.656Z" fill="white"/>
<path d="M987.649 204.328H939.826V252.164H987.649V204.328Z" fill="white"/>
<path d="M987.649 300H939.826V347.836H987.649V300Z" fill="white"/>
<path d="M987.649 395.672H939.826V443.508H987.649V395.672Z" fill="white"/>
<path d="M987.649 491.344H939.826V539.18H987.649V491.344Z" fill="white"/>
<path d="M652.89 60.8203H605.067V108.656H652.89V60.8203Z" fill="white"/>
<path d="M652.89 156.492H605.067V204.328H652.89V156.492Z" fill="white"/>
<path d="M652.89 252.164H605.067V300H652.89V252.164Z" fill="white"/>
<path d="M652.89 347.836H605.067V395.672H652.89V347.836Z" fill="white"/>
<path d="M652.89 443.508H605.067V491.344H652.89V443.508Z" fill="white"/>
<path d="M605.067 108.656H557.245V156.492H605.067V108.656Z" fill="white"/>
<path d="M605.067 204.328H557.245V252.164H605.067V204.328Z" fill="white"/>
<path d="M605.067 300H557.245V347.836H605.067V300Z" fill="white"/>
<path d="M605.067 395.672H557.245V443.508H605.067V395.672Z" fill="white"/>
<path d="M605.067 491.344H557.245V539.18H605.067V491.344Z" fill="white"/>
<path d="M748.537 60.8203H700.715V108.656H748.537V60.8203Z" fill="white"/>
<path d="M748.537 156.492H700.715V204.328H748.537V156.492Z" fill="white"/>
<path d="M748.537 252.164H700.715V300H748.537V252.164Z" fill="white"/>
<path d="M748.537 347.836H700.715V395.672H748.537V347.836Z" fill="white"/>
<path d="M748.537 443.508H700.715V491.344H748.537V443.508Z" fill="white"/>
<path d="M700.712 108.656H652.89V156.492H700.712V108.656Z" fill="white"/>
<path d="M700.712 204.328H652.89V252.164H700.712V204.328Z" fill="white"/>
<path d="M700.712 300H652.89V347.836H700.712V300Z" fill="white"/>
<path d="M700.712 395.672H652.89V443.508H700.712V395.672Z" fill="white"/>
<path d="M700.712 491.344H652.89V539.18H700.712V491.344Z" fill="white"/>
<path d="M844.182 60.8203H796.359V108.656H844.182V60.8203Z" fill="white"/>
<path d="M844.182 156.492H796.359V204.328H844.182V156.492Z" fill="white"/>
<path d="M844.182 252.164H796.359V300H844.182V252.164Z" fill="white"/>
<path d="M844.182 347.836H796.359V395.672H844.182V347.836Z" fill="white"/>
<path d="M844.182 443.508H796.359V491.344H844.182V443.508Z" fill="white"/>
<path d="M796.359 108.656H748.537V156.492H796.359V108.656Z" fill="white"/>
<path d="M796.359 204.328H748.537V252.164H796.359V204.328Z" fill="white"/>
<path d="M796.359 300H748.537V347.836H796.359V300Z" fill="white"/>
<path d="M796.359 395.672H748.537V443.508H796.359V395.672Z" fill="white"/>
<path d="M796.359 491.344H748.537V539.18H796.359V491.344Z" fill="white"/>
<path d="M939.826 60.8203H892.004V108.656H939.826V60.8203Z" fill="white"/>
<path d="M939.826 156.492H892.004V204.328H939.826V156.492Z" fill="white"/>
<path d="M939.826 252.164H892.004V300H939.826V252.164Z" fill="white"/>
<path d="M939.826 347.836H892.004V395.672H939.826V347.836Z" fill="white"/>
<path d="M939.826 443.508H892.004V491.344H939.826V443.508Z" fill="white"/>
<path d="M892.004 108.656H844.182V156.492H892.004V108.656Z" fill="white"/>
<path d="M892.004 204.328H844.182V252.164H892.004V204.328Z" fill="white"/>
<path d="M892.004 300H844.182V347.836H892.004V300Z" fill="white"/>
<path d="M892.004 395.672H844.182V443.508H892.004V395.672Z" fill="white"/>
<path d="M892.004 491.344H844.182V539.18H892.004V491.344Z" fill="white"/>
<path d="M885.172 177.335C883.464 177.335 882.098 178.702 882.098 180.41C882.098 182.119 883.464 183.485 885.172 183.485C886.88 183.485 888.246 182.119 888.246 180.41C888.246 178.702 886.88 177.335 885.172 177.335Z" fill="white"/>
<path d="M963.089 259.796C963.533 260.152 964.175 260.083 964.53 259.642L970.323 252.463C970.679 252.023 970.61 251.378 970.173 251.021C969.729 250.666 969.087 250.735 968.732 251.176L963.58 257.557L957.2 252.407C956.762 252.051 956.113 252.12 955.758 252.56C955.403 253.001 955.471 253.646 955.915 254.002L963.089 259.796ZM883.123 180.411C883.123 179.268 884.031 178.361 885.172 178.361V176.311C882.897 176.311 881.073 178.137 881.073 180.411H883.123ZM885.172 178.361C886.313 178.361 887.222 179.268 887.222 180.411H889.271C889.271 178.137 887.447 176.311 885.172 176.311V178.361ZM887.222 180.411C887.222 181.553 886.313 182.461 885.172 182.461V184.511C887.447 184.511 889.271 182.685 889.271 180.411H887.222ZM885.172 182.461C884.031 182.461 883.123 181.553 883.123 180.411H881.073C881.073 182.685 882.897 184.511 885.172 184.511V182.461ZM888.247 180.411C888.247 181.436 888.247 181.436 888.247 181.436C888.247 181.436 888.247 181.436 888.253 181.436C888.26 181.436 888.267 181.436 888.281 181.436C888.315 181.437 888.356 181.437 888.417 181.438C888.54 181.441 888.718 181.445 888.957 181.454C889.442 181.473 890.153 181.51 891.061 181.585C892.879 181.737 895.495 182.039 898.665 182.645C905.012 183.858 913.551 186.285 922.351 191.132C939.895 200.8 958.559 220.158 962.72 259.107L964.756 258.89C960.527 219.251 941.446 199.316 923.341 189.336C914.31 184.36 905.551 181.875 899.054 180.632C895.802 180.01 893.111 179.699 891.232 179.543C890.289 179.465 889.545 179.425 889.039 179.406C888.786 179.396 888.588 179.39 888.458 179.388C888.39 179.387 888.335 179.386 888.301 179.386C888.288 179.386 888.274 179.386 888.26 179.386C888.253 179.386 888.253 179.386 888.247 179.386C888.247 179.386 888.247 179.386 888.247 180.411Z" fill="#9747FF"/>
<path d="M946.658 279.157C948.366 279.157 949.733 277.79 949.733 276.082C949.733 274.374 948.366 273.007 946.658 273.007C944.95 273.007 943.584 274.374 943.584 276.082C943.584 277.79 944.95 279.157 946.658 279.157Z" fill="white"/>
<path d="M771.648 450.984C772.003 451.425 772.646 451.496 773.09 451.141L780.277 445.365C780.721 445.01 780.789 444.365 780.434 443.923C780.079 443.482 779.436 443.412 778.992 443.766L772.605 448.901L767.467 442.507C767.112 442.066 766.47 441.996 766.026 442.35C765.588 442.705 765.513 443.35 765.869 443.792L771.648 450.984ZM948.707 276.083C948.707 277.225 947.799 278.133 946.658 278.133V280.183C948.933 280.183 950.757 278.357 950.757 276.083H948.707ZM946.658 278.133C945.517 278.133 944.608 277.225 944.608 276.083H942.559C942.559 278.357 944.383 280.183 946.658 280.183V278.133ZM944.608 276.083C944.608 274.94 945.517 274.033 946.658 274.033V271.982C944.383 271.982 942.559 273.808 942.559 276.083H944.608ZM946.658 274.033C947.799 274.033 948.707 274.94 948.707 276.083H950.757C950.757 273.808 948.933 271.982 946.658 271.982V274.033ZM943.583 276.083C943.583 275.058 943.583 275.058 943.576 275.058C943.576 275.058 943.576 275.058 943.57 275.058C943.57 275.058 943.556 275.058 943.549 275.058C943.529 275.058 943.501 275.058 943.46 275.058C943.385 275.059 943.276 275.06 943.126 275.063C942.832 275.069 942.395 275.079 941.827 275.101C940.693 275.144 939.04 275.23 936.922 275.401C932.7 275.744 926.647 276.429 919.324 277.798C904.69 280.535 884.98 286.009 864.656 296.963C823.973 318.896 780.974 362.747 771.43 450.231L773.465 450.454C782.934 363.678 825.503 320.399 865.633 298.767C885.718 287.938 905.223 282.522 919.706 279.813C926.941 278.459 932.926 277.783 937.093 277.445C939.17 277.276 940.803 277.192 941.909 277.149C942.463 277.128 942.88 277.118 943.167 277.113C943.303 277.11 943.412 277.109 943.481 277.108C943.515 277.108 943.542 277.108 943.556 277.108C943.57 277.108 943.57 277.108 943.576 277.108C943.576 277.108 943.576 277.108 943.583 277.108C943.583 277.108 943.583 277.108 943.583 276.083Z" fill="#9747FF"/>
<path d="M755.368 464.352C753.66 464.352 752.294 465.718 752.294 467.427C752.294 469.135 753.66 470.502 755.368 470.502C757.076 470.502 758.443 469.135 758.443 467.427C758.443 465.718 757.076 464.352 755.368 464.352Z" fill="white"/>
<path d="M677.509 388.098C677.1 387.706 676.451 387.721 676.06 388.13L669.688 394.8C669.297 395.21 669.312 395.858 669.721 396.249C670.13 396.641 670.779 396.625 671.17 396.216L676.834 390.288L682.761 395.953C683.17 396.345 683.819 396.33 684.209 395.92C684.598 395.511 684.584 394.862 684.175 394.471L677.509 388.098ZM753.319 467.426C753.319 466.284 754.227 465.376 755.368 465.376V463.326C753.093 463.326 751.269 465.152 751.269 467.426H753.319ZM755.368 465.376C756.509 465.376 757.418 466.284 757.418 467.426H759.467C759.467 465.152 757.643 463.326 755.368 463.326V465.376ZM757.418 467.426C757.418 468.569 756.509 469.476 755.368 469.476V471.526C757.643 471.526 759.467 469.7 759.467 467.426H757.418ZM755.368 469.476C754.227 469.476 753.319 468.569 753.319 467.426H751.269C751.269 469.7 753.093 471.526 755.368 471.526V469.476ZM752.294 467.426C752.294 466.401 752.294 466.401 752.294 466.401C752.287 466.401 752.287 466.401 752.28 466.401C752.274 466.401 752.267 466.401 752.246 466.401C752.212 466.4 752.164 466.4 752.096 466.399C751.966 466.396 751.761 466.392 751.502 466.383C750.976 466.364 750.197 466.326 749.199 466.251C747.211 466.099 744.356 465.796 740.926 465.189C734.06 463.974 724.899 461.544 715.689 456.696C697.339 447.03 678.708 427.705 677.826 388.815L675.776 388.862C676.677 428.56 695.788 448.528 714.74 458.51C724.181 463.484 733.561 465.967 740.571 467.207C744.075 467.828 746.993 468.139 749.042 468.295C750.067 468.373 750.873 468.412 751.426 468.431C751.707 468.441 751.918 468.446 752.062 468.448C752.137 468.45 752.192 468.451 752.233 468.451C752.246 468.451 752.267 468.451 752.274 468.451C752.28 468.451 752.28 468.451 752.287 468.451C752.294 468.451 752.294 468.451 752.294 467.426Z" fill="#9747FF"/>
<path d="M693.883 368.679C692.175 368.679 690.809 370.045 690.809 371.754C690.809 373.462 692.175 374.829 693.883 374.829C695.591 374.829 696.957 373.462 696.957 371.754C696.957 370.045 695.591 368.679 693.883 368.679Z" fill="white"/>
<path d="M773.24 292.523C772.885 292.082 772.243 292.013 771.799 292.369L764.625 298.163C764.181 298.519 764.113 299.164 764.468 299.605C764.823 300.045 765.472 300.114 765.91 299.759L772.29 294.608L777.442 300.989C777.797 301.43 778.439 301.499 778.883 301.144C779.32 300.788 779.389 300.143 779.033 299.702L773.24 292.523ZM691.833 371.755C691.833 370.612 692.741 369.704 693.882 369.704V367.654C691.607 367.654 689.783 369.48 689.783 371.755H691.833ZM693.882 369.704C695.023 369.704 695.932 370.612 695.932 371.755H697.981C697.981 369.48 696.157 367.654 693.882 367.654V369.704ZM695.932 371.755C695.932 372.897 695.023 373.805 693.882 373.805V375.855C696.157 375.855 697.981 374.029 697.981 371.755H695.932ZM693.882 373.805C692.741 373.805 691.833 372.897 691.833 371.755H689.783C689.783 374.029 691.607 375.855 693.882 375.855V373.805ZM696.957 371.755C696.957 372.78 696.957 372.78 696.957 372.78C696.963 372.78 696.963 372.78 696.97 372.78C696.984 372.78 696.998 372.78 697.011 372.779C697.045 372.779 697.1 372.778 697.168 372.777C697.298 372.775 697.496 372.769 697.749 372.76C698.255 372.74 698.999 372.7 699.942 372.622C701.821 372.467 704.512 372.155 707.764 371.533C714.261 370.291 723.02 367.805 732.051 362.829C750.156 352.85 769.237 332.914 773.466 293.275L771.43 293.058C767.269 332.007 748.605 351.365 731.061 361.033C722.261 365.88 713.722 368.307 707.375 369.52C704.205 370.126 701.589 370.429 699.771 370.58C698.863 370.655 698.152 370.693 697.667 370.711C697.428 370.721 697.25 370.725 697.127 370.727C697.066 370.728 697.025 370.729 696.991 370.729C696.977 370.729 696.97 370.729 696.963 370.729C696.957 370.729 696.957 370.729 696.957 370.729C696.957 370.729 696.957 370.729 696.957 371.755Z" fill="#9747FF"/>
<path d="M755.368 273.007C753.66 273.007 752.294 274.374 752.294 276.082C752.294 277.79 753.66 279.157 755.368 279.157C757.076 279.157 758.443 277.79 758.443 276.082C758.443 274.374 757.076 273.007 755.368 273.007Z" fill="white"/>
<path d="M677.509 196.754C677.1 196.362 676.451 196.377 676.06 196.787L669.688 203.456C669.297 203.866 669.312 204.514 669.721 204.905C670.13 205.297 670.779 205.282 671.17 204.872L676.834 198.944L682.761 204.609C683.17 205.001 683.819 204.986 684.209 204.576C684.598 204.167 684.584 203.519 684.175 203.128L677.509 196.754ZM753.319 276.082C753.319 274.94 754.227 274.032 755.368 274.032V271.982C753.093 271.982 751.269 273.808 751.269 276.082H753.319ZM755.368 274.032C756.509 274.032 757.418 274.94 757.418 276.082H759.467C759.467 273.808 757.643 271.982 755.368 271.982V274.032ZM757.418 276.082C757.418 277.225 756.509 278.133 755.368 278.133V280.183C757.643 280.183 759.467 278.357 759.467 276.082H757.418ZM755.368 278.133C754.227 278.133 753.319 277.225 753.319 276.082H751.269C751.269 278.357 753.093 280.183 755.368 280.183V278.133ZM752.294 276.082C752.294 275.057 752.294 275.057 752.294 275.057C752.287 275.057 752.287 275.057 752.28 275.057C752.274 275.057 752.267 275.057 752.246 275.057C752.212 275.057 752.164 275.056 752.096 275.055C751.966 275.053 751.761 275.048 751.502 275.039C750.976 275.02 750.197 274.982 749.199 274.907C747.211 274.755 744.356 274.453 740.926 273.845C734.06 272.63 724.899 270.201 715.689 265.352C697.339 255.687 678.708 236.361 677.826 197.471L675.776 197.518C676.677 237.216 695.788 257.184 714.74 267.166C724.181 272.141 733.561 274.623 740.571 275.864C744.075 276.484 746.993 276.795 749.042 276.951C750.067 277.029 750.873 277.068 751.426 277.088C751.707 277.097 751.918 277.103 752.062 277.105C752.137 277.106 752.192 277.107 752.233 277.107C752.246 277.107 752.267 277.107 752.274 277.107C752.28 277.107 752.28 277.107 752.287 277.107C752.294 277.107 752.294 277.107 752.294 276.082Z" fill="#9747FF"/>
</g>
<path d="M1034.1 61.5039H558.611C558.234 61.5039 557.928 61.8099 557.928 62.1873V537.814C557.928 538.191 558.234 538.497 558.611 538.497H1034.1C1034.48 538.497 1034.79 538.191 1034.79 537.814V62.1873C1034.79 61.8099 1034.48 61.5039 1034.1 61.5039Z" stroke="#D0D5DD" stroke-width="2"/>
</g>
<rect x="1" y="1" width="1598" height="598" rx="19" stroke="#F2F2F2" stroke-width="2"/>
<defs>
<clipPath id="clip0_129_16249">
<rect width="1600" height="600" rx="20" fill="white"/>
</clipPath>
</defs>
</svg>
