<svg width="1600" height="600" viewBox="0 0 1600 600" fill="none" xmlns="http://www.w3.org/2000/svg">
<g clip-path="url(#clip0_3_2)">
<rect width="1600" height="600" rx="20" fill="white"/>
<rect width="50" height="50" stroke="#F2F2F2" stroke-width="2"/>
<rect x="50" width="50" height="50" stroke="#F2F2F2" stroke-width="2"/>
<rect x="100" width="50" height="50" stroke="#F2F2F2" stroke-width="2"/>
<rect x="150" width="50" height="50" stroke="#F2F2F2" stroke-width="2"/>
<rect x="200" width="50" height="50" stroke="#F2F2F2" stroke-width="2"/>
<rect x="250" width="50" height="50" stroke="#F2F2F2" stroke-width="2"/>
<rect x="300" width="50" height="50" stroke="#F2F2F2" stroke-width="2"/>
<rect x="350" width="50" height="50" stroke="#F2F2F2" stroke-width="2"/>
<rect x="400" width="50" height="50" stroke="#F2F2F2" stroke-width="2"/>
<rect x="450" width="50" height="50" stroke="#F2F2F2" stroke-width="2"/>
<rect x="500" width="50" height="50" stroke="#F2F2F2" stroke-width="2"/>
<rect x="550" width="50" height="50" stroke="#F2F2F2" stroke-width="2"/>
<rect x="600" width="50" height="50" stroke="#F2F2F2" stroke-width="2"/>
<rect x="650" width="50" height="50" stroke="#F2F2F2" stroke-width="2"/>
<rect x="700" width="50" height="50" stroke="#F2F2F2" stroke-width="2"/>
<rect x="750" width="50" height="50" stroke="#F2F2F2" stroke-width="2"/>
<rect x="800" width="50" height="50" stroke="#F2F2F2" stroke-width="2"/>
<rect x="850" width="50" height="50" stroke="#F2F2F2" stroke-width="2"/>
<rect x="900" width="50" height="50" stroke="#F2F2F2" stroke-width="2"/>
<rect x="950" width="50" height="50" stroke="#F2F2F2" stroke-width="2"/>
<rect x="1000" width="50" height="50" stroke="#F2F2F2" stroke-width="2"/>
<rect x="1050" width="50" height="50" stroke="#F2F2F2" stroke-width="2"/>
<rect x="1100" width="50" height="50" stroke="#F2F2F2" stroke-width="2"/>
<rect x="1150" width="50" height="50" stroke="#F2F2F2" stroke-width="2"/>
<rect x="1200" width="50" height="50" stroke="#F2F2F2" stroke-width="2"/>
<rect x="1250" width="50" height="50" stroke="#F2F2F2" stroke-width="2"/>
<rect x="1300" width="50" height="50" stroke="#F2F2F2" stroke-width="2"/>
<rect x="1350" width="50" height="50" stroke="#F2F2F2" stroke-width="2"/>
<rect x="1400" width="50" height="50" stroke="#F2F2F2" stroke-width="2"/>
<rect x="1450" width="50" height="50" stroke="#F2F2F2" stroke-width="2"/>
<rect x="1500" width="50" height="50" stroke="#F2F2F2" stroke-width="2"/>
<rect x="1550" width="50" height="50" stroke="#F2F2F2" stroke-width="2"/>
<rect y="50" width="50" height="50" stroke="#F2F2F2" stroke-width="2"/>
<rect x="50" y="50" width="50" height="50" stroke="#F2F2F2" stroke-width="2"/>
<rect x="100" y="50" width="50" height="50" stroke="#F2F2F2" stroke-width="2"/>
<rect x="150" y="50" width="50" height="50" stroke="#F2F2F2" stroke-width="2"/>
<rect x="200" y="50" width="50" height="50" stroke="#F2F2F2" stroke-width="2"/>
<rect x="250" y="50" width="50" height="50" stroke="#F2F2F2" stroke-width="2"/>
<rect x="300" y="50" width="50" height="50" stroke="#F2F2F2" stroke-width="2"/>
<rect x="350" y="50" width="50" height="50" stroke="#F2F2F2" stroke-width="2"/>
<rect x="400" y="50" width="50" height="50" stroke="#F2F2F2" stroke-width="2"/>
<rect x="450" y="50" width="50" height="50" stroke="#F2F2F2" stroke-width="2"/>
<rect x="500" y="50" width="50" height="50" stroke="#F2F2F2" stroke-width="2"/>
<rect x="550" y="50" width="50" height="50" stroke="#F2F2F2" stroke-width="2"/>
<rect x="600" y="50" width="50" height="50" stroke="#F2F2F2" stroke-width="2"/>
<rect x="650" y="50" width="50" height="50" stroke="#F2F2F2" stroke-width="2"/>
<rect x="700" y="50" width="50" height="50" stroke="#F2F2F2" stroke-width="2"/>
<rect x="750" y="50" width="50" height="50" stroke="#F2F2F2" stroke-width="2"/>
<rect x="800" y="50" width="50" height="50" stroke="#F2F2F2" stroke-width="2"/>
<rect x="850" y="50" width="50" height="50" stroke="#F2F2F2" stroke-width="2"/>
<rect x="900" y="50" width="50" height="50" stroke="#F2F2F2" stroke-width="2"/>
<rect x="950" y="50" width="50" height="50" stroke="#F2F2F2" stroke-width="2"/>
<rect x="1000" y="50" width="50" height="50" stroke="#F2F2F2" stroke-width="2"/>
<rect x="1050" y="50" width="50" height="50" stroke="#F2F2F2" stroke-width="2"/>
<rect x="1100" y="50" width="50" height="50" stroke="#F2F2F2" stroke-width="2"/>
<rect x="1150" y="50" width="50" height="50" stroke="#F2F2F2" stroke-width="2"/>
<rect x="1200" y="50" width="50" height="50" stroke="#F2F2F2" stroke-width="2"/>
<rect x="1250" y="50" width="50" height="50" stroke="#F2F2F2" stroke-width="2"/>
<rect x="1300" y="50" width="50" height="50" stroke="#F2F2F2" stroke-width="2"/>
<rect x="1350" y="50" width="50" height="50" stroke="#F2F2F2" stroke-width="2"/>
<rect x="1400" y="50" width="50" height="50" stroke="#F2F2F2" stroke-width="2"/>
<rect x="1450" y="50" width="50" height="50" stroke="#F2F2F2" stroke-width="2"/>
<rect x="1500" y="50" width="50" height="50" stroke="#F2F2F2" stroke-width="2"/>
<rect x="1550" y="50" width="50" height="50" stroke="#F2F2F2" stroke-width="2"/>
<rect y="100" width="50" height="50" stroke="#F2F2F2" stroke-width="2"/>
<rect x="50" y="100" width="50" height="50" stroke="#F2F2F2" stroke-width="2"/>
<rect x="100" y="100" width="50" height="50" stroke="#F2F2F2" stroke-width="2"/>
<rect x="150" y="100" width="50" height="50" stroke="#F2F2F2" stroke-width="2"/>
<rect x="200" y="100" width="50" height="50" stroke="#F2F2F2" stroke-width="2"/>
<rect x="250" y="100" width="50" height="50" stroke="#F2F2F2" stroke-width="2"/>
<rect x="300" y="100" width="50" height="50" stroke="#F2F2F2" stroke-width="2"/>
<rect x="350" y="100" width="50" height="50" stroke="#F2F2F2" stroke-width="2"/>
<rect x="400" y="100" width="50" height="50" stroke="#F2F2F2" stroke-width="2"/>
<rect x="450" y="100" width="50" height="50" stroke="#F2F2F2" stroke-width="2"/>
<rect x="500" y="100" width="50" height="50" stroke="#F2F2F2" stroke-width="2"/>
<rect x="550" y="100" width="50" height="50" stroke="#F2F2F2" stroke-width="2"/>
<rect x="600" y="100" width="50" height="50" stroke="#F2F2F2" stroke-width="2"/>
<rect x="650" y="100" width="50" height="50" stroke="#F2F2F2" stroke-width="2"/>
<rect x="700" y="100" width="50" height="50" stroke="#F2F2F2" stroke-width="2"/>
<rect x="750" y="100" width="50" height="50" stroke="#F2F2F2" stroke-width="2"/>
<rect x="800" y="100" width="50" height="50" stroke="#F2F2F2" stroke-width="2"/>
<rect x="850" y="100" width="50" height="50" stroke="#F2F2F2" stroke-width="2"/>
<rect x="900" y="100" width="50" height="50" stroke="#F2F2F2" stroke-width="2"/>
<rect x="950" y="100" width="50" height="50" stroke="#F2F2F2" stroke-width="2"/>
<rect x="1000" y="100" width="50" height="50" stroke="#F2F2F2" stroke-width="2"/>
<rect x="1050" y="100" width="50" height="50" stroke="#F2F2F2" stroke-width="2"/>
<rect x="1100" y="100" width="50" height="50" stroke="#F2F2F2" stroke-width="2"/>
<rect x="1150" y="100" width="50" height="50" stroke="#F2F2F2" stroke-width="2"/>
<rect x="1200" y="100" width="50" height="50" stroke="#F2F2F2" stroke-width="2"/>
<rect x="1250" y="100" width="50" height="50" stroke="#F2F2F2" stroke-width="2"/>
<rect x="1300" y="100" width="50" height="50" stroke="#F2F2F2" stroke-width="2"/>
<rect x="1350" y="100" width="50" height="50" stroke="#F2F2F2" stroke-width="2"/>
<rect x="1400" y="100" width="50" height="50" stroke="#F2F2F2" stroke-width="2"/>
<rect x="1450" y="100" width="50" height="50" stroke="#F2F2F2" stroke-width="2"/>
<rect x="1500" y="100" width="50" height="50" stroke="#F2F2F2" stroke-width="2"/>
<rect x="1550" y="100" width="50" height="50" stroke="#F2F2F2" stroke-width="2"/>
<rect y="150" width="50" height="50" stroke="#F2F2F2" stroke-width="2"/>
<rect x="50" y="150" width="50" height="50" stroke="#F2F2F2" stroke-width="2"/>
<rect x="100" y="150" width="50" height="50" stroke="#F2F2F2" stroke-width="2"/>
<rect x="150" y="150" width="50" height="50" stroke="#F2F2F2" stroke-width="2"/>
<rect x="200" y="150" width="50" height="50" stroke="#F2F2F2" stroke-width="2"/>
<rect x="250" y="150" width="50" height="50" stroke="#F2F2F2" stroke-width="2"/>
<rect x="300" y="150" width="50" height="50" stroke="#F2F2F2" stroke-width="2"/>
<rect x="350" y="150" width="50" height="50" stroke="#F2F2F2" stroke-width="2"/>
<rect x="400" y="150" width="50" height="50" stroke="#F2F2F2" stroke-width="2"/>
<rect x="450" y="150" width="50" height="50" stroke="#F2F2F2" stroke-width="2"/>
<rect x="500" y="150" width="50" height="50" stroke="#F2F2F2" stroke-width="2"/>
<rect x="550" y="150" width="50" height="50" stroke="#F2F2F2" stroke-width="2"/>
<rect x="600" y="150" width="50" height="50" stroke="#F2F2F2" stroke-width="2"/>
<rect x="650" y="150" width="50" height="50" stroke="#F2F2F2" stroke-width="2"/>
<rect x="700" y="150" width="50" height="50" stroke="#F2F2F2" stroke-width="2"/>
<rect x="750" y="150" width="50" height="50" stroke="#F2F2F2" stroke-width="2"/>
<rect x="800" y="150" width="50" height="50" stroke="#F2F2F2" stroke-width="2"/>
<rect x="850" y="150" width="50" height="50" stroke="#F2F2F2" stroke-width="2"/>
<rect x="900" y="150" width="50" height="50" stroke="#F2F2F2" stroke-width="2"/>
<rect x="950" y="150" width="50" height="50" stroke="#F2F2F2" stroke-width="2"/>
<rect x="1000" y="150" width="50" height="50" stroke="#F2F2F2" stroke-width="2"/>
<rect x="1050" y="150" width="50" height="50" stroke="#F2F2F2" stroke-width="2"/>
<rect x="1100" y="150" width="50" height="50" stroke="#F2F2F2" stroke-width="2"/>
<rect x="1150" y="150" width="50" height="50" stroke="#F2F2F2" stroke-width="2"/>
<rect x="1200" y="150" width="50" height="50" stroke="#F2F2F2" stroke-width="2"/>
<rect x="1250" y="150" width="50" height="50" stroke="#F2F2F2" stroke-width="2"/>
<rect x="1300" y="150" width="50" height="50" stroke="#F2F2F2" stroke-width="2"/>
<rect x="1350" y="150" width="50" height="50" stroke="#F2F2F2" stroke-width="2"/>
<rect x="1400" y="150" width="50" height="50" stroke="#F2F2F2" stroke-width="2"/>
<rect x="1450" y="150" width="50" height="50" stroke="#F2F2F2" stroke-width="2"/>
<rect x="1500" y="150" width="50" height="50" stroke="#F2F2F2" stroke-width="2"/>
<rect x="1550" y="150" width="50" height="50" stroke="#F2F2F2" stroke-width="2"/>
<rect y="200" width="50" height="50" stroke="#F2F2F2" stroke-width="2"/>
<rect x="50" y="200" width="50" height="50" stroke="#F2F2F2" stroke-width="2"/>
<rect x="100" y="200" width="50" height="50" stroke="#F2F2F2" stroke-width="2"/>
<rect x="150" y="200" width="50" height="50" stroke="#F2F2F2" stroke-width="2"/>
<rect x="200" y="200" width="50" height="50" stroke="#F2F2F2" stroke-width="2"/>
<rect x="250" y="200" width="50" height="50" stroke="#F2F2F2" stroke-width="2"/>
<rect x="300" y="200" width="50" height="50" stroke="#F2F2F2" stroke-width="2"/>
<rect x="350" y="200" width="50" height="50" stroke="#F2F2F2" stroke-width="2"/>
<rect x="400" y="200" width="50" height="50" stroke="#F2F2F2" stroke-width="2"/>
<rect x="450" y="200" width="50" height="50" stroke="#F2F2F2" stroke-width="2"/>
<rect x="500" y="200" width="50" height="50" stroke="#F2F2F2" stroke-width="2"/>
<rect x="550" y="200" width="50" height="50" stroke="#F2F2F2" stroke-width="2"/>
<rect x="600" y="200" width="50" height="50" stroke="#F2F2F2" stroke-width="2"/>
<rect x="650" y="200" width="50" height="50" stroke="#F2F2F2" stroke-width="2"/>
<rect x="700" y="200" width="50" height="50" stroke="#F2F2F2" stroke-width="2"/>
<rect x="750" y="200" width="50" height="50" stroke="#F2F2F2" stroke-width="2"/>
<rect x="800" y="200" width="50" height="50" stroke="#F2F2F2" stroke-width="2"/>
<rect x="850" y="200" width="50" height="50" stroke="#F2F2F2" stroke-width="2"/>
<rect x="900" y="200" width="50" height="50" stroke="#F2F2F2" stroke-width="2"/>
<rect x="950" y="200" width="50" height="50" stroke="#F2F2F2" stroke-width="2"/>
<rect x="1000" y="200" width="50" height="50" stroke="#F2F2F2" stroke-width="2"/>
<rect x="1050" y="200" width="50" height="50" stroke="#F2F2F2" stroke-width="2"/>
<rect x="1100" y="200" width="50" height="50" stroke="#F2F2F2" stroke-width="2"/>
<rect x="1150" y="200" width="50" height="50" stroke="#F2F2F2" stroke-width="2"/>
<rect x="1200" y="200" width="50" height="50" stroke="#F2F2F2" stroke-width="2"/>
<rect x="1250" y="200" width="50" height="50" stroke="#F2F2F2" stroke-width="2"/>
<rect x="1300" y="200" width="50" height="50" stroke="#F2F2F2" stroke-width="2"/>
<rect x="1350" y="200" width="50" height="50" stroke="#F2F2F2" stroke-width="2"/>
<rect x="1400" y="200" width="50" height="50" stroke="#F2F2F2" stroke-width="2"/>
<rect x="1450" y="200" width="50" height="50" stroke="#F2F2F2" stroke-width="2"/>
<rect x="1500" y="200" width="50" height="50" stroke="#F2F2F2" stroke-width="2"/>
<rect x="1550" y="200" width="50" height="50" stroke="#F2F2F2" stroke-width="2"/>
<rect y="250" width="50" height="50" stroke="#F2F2F2" stroke-width="2"/>
<rect x="50" y="250" width="50" height="50" stroke="#F2F2F2" stroke-width="2"/>
<rect x="100" y="250" width="50" height="50" stroke="#F2F2F2" stroke-width="2"/>
<rect x="150" y="250" width="50" height="50" stroke="#F2F2F2" stroke-width="2"/>
<rect x="200" y="250" width="50" height="50" stroke="#F2F2F2" stroke-width="2"/>
<rect x="250" y="250" width="50" height="50" stroke="#F2F2F2" stroke-width="2"/>
<rect x="300" y="250" width="50" height="50" stroke="#F2F2F2" stroke-width="2"/>
<rect x="350" y="250" width="50" height="50" stroke="#F2F2F2" stroke-width="2"/>
<rect x="400" y="250" width="50" height="50" stroke="#F2F2F2" stroke-width="2"/>
<rect x="450" y="250" width="50" height="50" stroke="#F2F2F2" stroke-width="2"/>
<rect x="500" y="250" width="50" height="50" stroke="#F2F2F2" stroke-width="2"/>
<rect x="550" y="250" width="50" height="50" stroke="#F2F2F2" stroke-width="2"/>
<rect x="600" y="250" width="50" height="50" stroke="#F2F2F2" stroke-width="2"/>
<rect x="650" y="250" width="50" height="50" stroke="#F2F2F2" stroke-width="2"/>
<rect x="700" y="250" width="50" height="50" stroke="#F2F2F2" stroke-width="2"/>
<rect x="750" y="250" width="50" height="50" stroke="#F2F2F2" stroke-width="2"/>
<rect x="800" y="250" width="50" height="50" stroke="#F2F2F2" stroke-width="2"/>
<rect x="850" y="250" width="50" height="50" stroke="#F2F2F2" stroke-width="2"/>
<rect x="900" y="250" width="50" height="50" stroke="#F2F2F2" stroke-width="2"/>
<rect x="950" y="250" width="50" height="50" stroke="#F2F2F2" stroke-width="2"/>
<rect x="1000" y="250" width="50" height="50" stroke="#F2F2F2" stroke-width="2"/>
<rect x="1050" y="250" width="50" height="50" stroke="#F2F2F2" stroke-width="2"/>
<rect x="1100" y="250" width="50" height="50" stroke="#F2F2F2" stroke-width="2"/>
<rect x="1150" y="250" width="50" height="50" stroke="#F2F2F2" stroke-width="2"/>
<rect x="1200" y="250" width="50" height="50" stroke="#F2F2F2" stroke-width="2"/>
<rect x="1250" y="250" width="50" height="50" stroke="#F2F2F2" stroke-width="2"/>
<rect x="1300" y="250" width="50" height="50" stroke="#F2F2F2" stroke-width="2"/>
<rect x="1350" y="250" width="50" height="50" stroke="#F2F2F2" stroke-width="2"/>
<rect x="1400" y="250" width="50" height="50" stroke="#F2F2F2" stroke-width="2"/>
<rect x="1450" y="250" width="50" height="50" stroke="#F2F2F2" stroke-width="2"/>
<rect x="1500" y="250" width="50" height="50" stroke="#F2F2F2" stroke-width="2"/>
<rect x="1550" y="250" width="50" height="50" stroke="#F2F2F2" stroke-width="2"/>
<rect y="300" width="50" height="50" stroke="#F2F2F2" stroke-width="2"/>
<rect x="50" y="300" width="50" height="50" stroke="#F2F2F2" stroke-width="2"/>
<rect x="100" y="300" width="50" height="50" stroke="#F2F2F2" stroke-width="2"/>
<rect x="150" y="300" width="50" height="50" stroke="#F2F2F2" stroke-width="2"/>
<rect x="200" y="300" width="50" height="50" stroke="#F2F2F2" stroke-width="2"/>
<rect x="250" y="300" width="50" height="50" stroke="#F2F2F2" stroke-width="2"/>
<rect x="300" y="300" width="50" height="50" stroke="#F2F2F2" stroke-width="2"/>
<rect x="350" y="300" width="50" height="50" stroke="#F2F2F2" stroke-width="2"/>
<rect x="400" y="300" width="50" height="50" stroke="#F2F2F2" stroke-width="2"/>
<rect x="450" y="300" width="50" height="50" stroke="#F2F2F2" stroke-width="2"/>
<rect x="500" y="300" width="50" height="50" stroke="#F2F2F2" stroke-width="2"/>
<rect x="550" y="300" width="50" height="50" stroke="#F2F2F2" stroke-width="2"/>
<rect x="600" y="300" width="50" height="50" stroke="#F2F2F2" stroke-width="2"/>
<rect x="650" y="300" width="50" height="50" stroke="#F2F2F2" stroke-width="2"/>
<rect x="700" y="300" width="50" height="50" stroke="#F2F2F2" stroke-width="2"/>
<rect x="750" y="300" width="50" height="50" stroke="#F2F2F2" stroke-width="2"/>
<rect x="800" y="300" width="50" height="50" stroke="#F2F2F2" stroke-width="2"/>
<rect x="850" y="300" width="50" height="50" stroke="#F2F2F2" stroke-width="2"/>
<rect x="900" y="300" width="50" height="50" stroke="#F2F2F2" stroke-width="2"/>
<rect x="950" y="300" width="50" height="50" stroke="#F2F2F2" stroke-width="2"/>
<rect x="1000" y="300" width="50" height="50" stroke="#F2F2F2" stroke-width="2"/>
<rect x="1050" y="300" width="50" height="50" stroke="#F2F2F2" stroke-width="2"/>
<rect x="1100" y="300" width="50" height="50" stroke="#F2F2F2" stroke-width="2"/>
<rect x="1150" y="300" width="50" height="50" stroke="#F2F2F2" stroke-width="2"/>
<rect x="1200" y="300" width="50" height="50" stroke="#F2F2F2" stroke-width="2"/>
<rect x="1250" y="300" width="50" height="50" stroke="#F2F2F2" stroke-width="2"/>
<rect x="1300" y="300" width="50" height="50" stroke="#F2F2F2" stroke-width="2"/>
<rect x="1350" y="300" width="50" height="50" stroke="#F2F2F2" stroke-width="2"/>
<rect x="1400" y="300" width="50" height="50" stroke="#F2F2F2" stroke-width="2"/>
<rect x="1450" y="300" width="50" height="50" stroke="#F2F2F2" stroke-width="2"/>
<rect x="1500" y="300" width="50" height="50" stroke="#F2F2F2" stroke-width="2"/>
<rect x="1550" y="300" width="50" height="50" stroke="#F2F2F2" stroke-width="2"/>
<rect y="350" width="50" height="50" stroke="#F2F2F2" stroke-width="2"/>
<rect x="50" y="350" width="50" height="50" stroke="#F2F2F2" stroke-width="2"/>
<rect x="100" y="350" width="50" height="50" stroke="#F2F2F2" stroke-width="2"/>
<rect x="150" y="350" width="50" height="50" stroke="#F2F2F2" stroke-width="2"/>
<rect x="200" y="350" width="50" height="50" stroke="#F2F2F2" stroke-width="2"/>
<rect x="250" y="350" width="50" height="50" stroke="#F2F2F2" stroke-width="2"/>
<rect x="300" y="350" width="50" height="50" stroke="#F2F2F2" stroke-width="2"/>
<rect x="350" y="350" width="50" height="50" stroke="#F2F2F2" stroke-width="2"/>
<rect x="400" y="350" width="50" height="50" stroke="#F2F2F2" stroke-width="2"/>
<rect x="450" y="350" width="50" height="50" stroke="#F2F2F2" stroke-width="2"/>
<rect x="500" y="350" width="50" height="50" stroke="#F2F2F2" stroke-width="2"/>
<rect x="550" y="350" width="50" height="50" stroke="#F2F2F2" stroke-width="2"/>
<rect x="600" y="350" width="50" height="50" stroke="#F2F2F2" stroke-width="2"/>
<rect x="650" y="350" width="50" height="50" stroke="#F2F2F2" stroke-width="2"/>
<rect x="700" y="350" width="50" height="50" stroke="#F2F2F2" stroke-width="2"/>
<rect x="750" y="350" width="50" height="50" stroke="#F2F2F2" stroke-width="2"/>
<rect x="800" y="350" width="50" height="50" stroke="#F2F2F2" stroke-width="2"/>
<rect x="850" y="350" width="50" height="50" stroke="#F2F2F2" stroke-width="2"/>
<rect x="900" y="350" width="50" height="50" stroke="#F2F2F2" stroke-width="2"/>
<rect x="950" y="350" width="50" height="50" stroke="#F2F2F2" stroke-width="2"/>
<rect x="1000" y="350" width="50" height="50" stroke="#F2F2F2" stroke-width="2"/>
<rect x="1050" y="350" width="50" height="50" stroke="#F2F2F2" stroke-width="2"/>
<rect x="1100" y="350" width="50" height="50" stroke="#F2F2F2" stroke-width="2"/>
<rect x="1150" y="350" width="50" height="50" stroke="#F2F2F2" stroke-width="2"/>
<rect x="1200" y="350" width="50" height="50" stroke="#F2F2F2" stroke-width="2"/>
<rect x="1250" y="350" width="50" height="50" stroke="#F2F2F2" stroke-width="2"/>
<rect x="1300" y="350" width="50" height="50" stroke="#F2F2F2" stroke-width="2"/>
<rect x="1350" y="350" width="50" height="50" stroke="#F2F2F2" stroke-width="2"/>
<rect x="1400" y="350" width="50" height="50" stroke="#F2F2F2" stroke-width="2"/>
<rect x="1450" y="350" width="50" height="50" stroke="#F2F2F2" stroke-width="2"/>
<rect x="1500" y="350" width="50" height="50" stroke="#F2F2F2" stroke-width="2"/>
<rect x="1550" y="350" width="50" height="50" stroke="#F2F2F2" stroke-width="2"/>
<rect y="400" width="50" height="50" stroke="#F2F2F2" stroke-width="2"/>
<rect x="50" y="400" width="50" height="50" stroke="#F2F2F2" stroke-width="2"/>
<rect x="100" y="400" width="50" height="50" stroke="#F2F2F2" stroke-width="2"/>
<rect x="150" y="400" width="50" height="50" stroke="#F2F2F2" stroke-width="2"/>
<rect x="200" y="400" width="50" height="50" stroke="#F2F2F2" stroke-width="2"/>
<rect x="250" y="400" width="50" height="50" stroke="#F2F2F2" stroke-width="2"/>
<rect x="300" y="400" width="50" height="50" stroke="#F2F2F2" stroke-width="2"/>
<rect x="350" y="400" width="50" height="50" stroke="#F2F2F2" stroke-width="2"/>
<rect x="400" y="400" width="50" height="50" stroke="#F2F2F2" stroke-width="2"/>
<rect x="450" y="400" width="50" height="50" stroke="#F2F2F2" stroke-width="2"/>
<rect x="500" y="400" width="50" height="50" stroke="#F2F2F2" stroke-width="2"/>
<rect x="550" y="400" width="50" height="50" stroke="#F2F2F2" stroke-width="2"/>
<rect x="600" y="400" width="50" height="50" stroke="#F2F2F2" stroke-width="2"/>
<rect x="650" y="400" width="50" height="50" stroke="#F2F2F2" stroke-width="2"/>
<rect x="700" y="400" width="50" height="50" stroke="#F2F2F2" stroke-width="2"/>
<rect x="750" y="400" width="50" height="50" stroke="#F2F2F2" stroke-width="2"/>
<rect x="800" y="400" width="50" height="50" stroke="#F2F2F2" stroke-width="2"/>
<rect x="850" y="400" width="50" height="50" stroke="#F2F2F2" stroke-width="2"/>
<rect x="900" y="400" width="50" height="50" stroke="#F2F2F2" stroke-width="2"/>
<rect x="950" y="400" width="50" height="50" stroke="#F2F2F2" stroke-width="2"/>
<rect x="1000" y="400" width="50" height="50" stroke="#F2F2F2" stroke-width="2"/>
<rect x="1050" y="400" width="50" height="50" stroke="#F2F2F2" stroke-width="2"/>
<rect x="1100" y="400" width="50" height="50" stroke="#F2F2F2" stroke-width="2"/>
<rect x="1150" y="400" width="50" height="50" stroke="#F2F2F2" stroke-width="2"/>
<rect x="1200" y="400" width="50" height="50" stroke="#F2F2F2" stroke-width="2"/>
<rect x="1250" y="400" width="50" height="50" stroke="#F2F2F2" stroke-width="2"/>
<rect x="1300" y="400" width="50" height="50" stroke="#F2F2F2" stroke-width="2"/>
<rect x="1350" y="400" width="50" height="50" stroke="#F2F2F2" stroke-width="2"/>
<rect x="1400" y="400" width="50" height="50" stroke="#F2F2F2" stroke-width="2"/>
<rect x="1450" y="400" width="50" height="50" stroke="#F2F2F2" stroke-width="2"/>
<rect x="1500" y="400" width="50" height="50" stroke="#F2F2F2" stroke-width="2"/>
<rect x="1550" y="400" width="50" height="50" stroke="#F2F2F2" stroke-width="2"/>
<rect y="450" width="50" height="50" stroke="#F2F2F2" stroke-width="2"/>
<rect x="50" y="450" width="50" height="50" stroke="#F2F2F2" stroke-width="2"/>
<rect x="100" y="450" width="50" height="50" stroke="#F2F2F2" stroke-width="2"/>
<rect x="150" y="450" width="50" height="50" stroke="#F2F2F2" stroke-width="2"/>
<rect x="200" y="450" width="50" height="50" stroke="#F2F2F2" stroke-width="2"/>
<rect x="250" y="450" width="50" height="50" stroke="#F2F2F2" stroke-width="2"/>
<rect x="300" y="450" width="50" height="50" stroke="#F2F2F2" stroke-width="2"/>
<rect x="350" y="450" width="50" height="50" stroke="#F2F2F2" stroke-width="2"/>
<rect x="400" y="450" width="50" height="50" stroke="#F2F2F2" stroke-width="2"/>
<rect x="450" y="450" width="50" height="50" stroke="#F2F2F2" stroke-width="2"/>
<rect x="500" y="450" width="50" height="50" stroke="#F2F2F2" stroke-width="2"/>
<rect x="550" y="450" width="50" height="50" stroke="#F2F2F2" stroke-width="2"/>
<rect x="600" y="450" width="50" height="50" stroke="#F2F2F2" stroke-width="2"/>
<rect x="650" y="450" width="50" height="50" stroke="#F2F2F2" stroke-width="2"/>
<rect x="700" y="450" width="50" height="50" stroke="#F2F2F2" stroke-width="2"/>
<rect x="750" y="450" width="50" height="50" stroke="#F2F2F2" stroke-width="2"/>
<rect x="800" y="450" width="50" height="50" stroke="#F2F2F2" stroke-width="2"/>
<rect x="850" y="450" width="50" height="50" stroke="#F2F2F2" stroke-width="2"/>
<rect x="900" y="450" width="50" height="50" stroke="#F2F2F2" stroke-width="2"/>
<rect x="950" y="450" width="50" height="50" stroke="#F2F2F2" stroke-width="2"/>
<rect x="1000" y="450" width="50" height="50" stroke="#F2F2F2" stroke-width="2"/>
<rect x="1050" y="450" width="50" height="50" stroke="#F2F2F2" stroke-width="2"/>
<rect x="1100" y="450" width="50" height="50" stroke="#F2F2F2" stroke-width="2"/>
<rect x="1150" y="450" width="50" height="50" stroke="#F2F2F2" stroke-width="2"/>
<rect x="1200" y="450" width="50" height="50" stroke="#F2F2F2" stroke-width="2"/>
<rect x="1250" y="450" width="50" height="50" stroke="#F2F2F2" stroke-width="2"/>
<rect x="1300" y="450" width="50" height="50" stroke="#F2F2F2" stroke-width="2"/>
<rect x="1350" y="450" width="50" height="50" stroke="#F2F2F2" stroke-width="2"/>
<rect x="1400" y="450" width="50" height="50" stroke="#F2F2F2" stroke-width="2"/>
<rect x="1450" y="450" width="50" height="50" stroke="#F2F2F2" stroke-width="2"/>
<rect x="1500" y="450" width="50" height="50" stroke="#F2F2F2" stroke-width="2"/>
<rect x="1550" y="450" width="50" height="50" stroke="#F2F2F2" stroke-width="2"/>
<rect y="500" width="50" height="50" stroke="#F2F2F2" stroke-width="2"/>
<rect x="50" y="500" width="50" height="50" stroke="#F2F2F2" stroke-width="2"/>
<rect x="100" y="500" width="50" height="50" stroke="#F2F2F2" stroke-width="2"/>
<rect x="150" y="500" width="50" height="50" stroke="#F2F2F2" stroke-width="2"/>
<rect x="200" y="500" width="50" height="50" stroke="#F2F2F2" stroke-width="2"/>
<rect x="250" y="500" width="50" height="50" stroke="#F2F2F2" stroke-width="2"/>
<rect x="300" y="500" width="50" height="50" stroke="#F2F2F2" stroke-width="2"/>
<rect x="350" y="500" width="50" height="50" stroke="#F2F2F2" stroke-width="2"/>
<rect x="400" y="500" width="50" height="50" stroke="#F2F2F2" stroke-width="2"/>
<rect x="450" y="500" width="50" height="50" stroke="#F2F2F2" stroke-width="2"/>
<rect x="500" y="500" width="50" height="50" stroke="#F2F2F2" stroke-width="2"/>
<rect x="550" y="500" width="50" height="50" stroke="#F2F2F2" stroke-width="2"/>
<rect x="600" y="500" width="50" height="50" stroke="#F2F2F2" stroke-width="2"/>
<rect x="650" y="500" width="50" height="50" stroke="#F2F2F2" stroke-width="2"/>
<rect x="700" y="500" width="50" height="50" stroke="#F2F2F2" stroke-width="2"/>
<rect x="750" y="500" width="50" height="50" stroke="#F2F2F2" stroke-width="2"/>
<rect x="800" y="500" width="50" height="50" stroke="#F2F2F2" stroke-width="2"/>
<rect x="850" y="500" width="50" height="50" stroke="#F2F2F2" stroke-width="2"/>
<rect x="900" y="500" width="50" height="50" stroke="#F2F2F2" stroke-width="2"/>
<rect x="950" y="500" width="50" height="50" stroke="#F2F2F2" stroke-width="2"/>
<rect x="1000" y="500" width="50" height="50" stroke="#F2F2F2" stroke-width="2"/>
<rect x="1050" y="500" width="50" height="50" stroke="#F2F2F2" stroke-width="2"/>
<rect x="1100" y="500" width="50" height="50" stroke="#F2F2F2" stroke-width="2"/>
<rect x="1150" y="500" width="50" height="50" stroke="#F2F2F2" stroke-width="2"/>
<rect x="1200" y="500" width="50" height="50" stroke="#F2F2F2" stroke-width="2"/>
<rect x="1250" y="500" width="50" height="50" stroke="#F2F2F2" stroke-width="2"/>
<rect x="1300" y="500" width="50" height="50" stroke="#F2F2F2" stroke-width="2"/>
<rect x="1350" y="500" width="50" height="50" stroke="#F2F2F2" stroke-width="2"/>
<rect x="1400" y="500" width="50" height="50" stroke="#F2F2F2" stroke-width="2"/>
<rect x="1450" y="500" width="50" height="50" stroke="#F2F2F2" stroke-width="2"/>
<rect x="1500" y="500" width="50" height="50" stroke="#F2F2F2" stroke-width="2"/>
<rect x="1550" y="500" width="50" height="50" stroke="#F2F2F2" stroke-width="2"/>
<rect y="550" width="50" height="50" stroke="#F2F2F2" stroke-width="2"/>
<rect x="50" y="550" width="50" height="50" stroke="#F2F2F2" stroke-width="2"/>
<rect x="100" y="550" width="50" height="50" stroke="#F2F2F2" stroke-width="2"/>
<rect x="150" y="550" width="50" height="50" stroke="#F2F2F2" stroke-width="2"/>
<rect x="200" y="550" width="50" height="50" stroke="#F2F2F2" stroke-width="2"/>
<rect x="250" y="550" width="50" height="50" stroke="#F2F2F2" stroke-width="2"/>
<rect x="300" y="550" width="50" height="50" stroke="#F2F2F2" stroke-width="2"/>
<rect x="350" y="550" width="50" height="50" stroke="#F2F2F2" stroke-width="2"/>
<rect x="400" y="550" width="50" height="50" stroke="#F2F2F2" stroke-width="2"/>
<rect x="450" y="550" width="50" height="50" stroke="#F2F2F2" stroke-width="2"/>
<rect x="500" y="550" width="50" height="50" stroke="#F2F2F2" stroke-width="2"/>
<rect x="550" y="550" width="50" height="50" stroke="#F2F2F2" stroke-width="2"/>
<rect x="600" y="550" width="50" height="50" stroke="#F2F2F2" stroke-width="2"/>
<rect x="650" y="550" width="50" height="50" stroke="#F2F2F2" stroke-width="2"/>
<rect x="700" y="550" width="50" height="50" stroke="#F2F2F2" stroke-width="2"/>
<rect x="750" y="550" width="50" height="50" stroke="#F2F2F2" stroke-width="2"/>
<rect x="800" y="550" width="50" height="50" stroke="#F2F2F2" stroke-width="2"/>
<rect x="850" y="550" width="50" height="50" stroke="#F2F2F2" stroke-width="2"/>
<rect x="900" y="550" width="50" height="50" stroke="#F2F2F2" stroke-width="2"/>
<rect x="950" y="550" width="50" height="50" stroke="#F2F2F2" stroke-width="2"/>
<rect x="1000" y="550" width="50" height="50" stroke="#F2F2F2" stroke-width="2"/>
<rect x="1050" y="550" width="50" height="50" stroke="#F2F2F2" stroke-width="2"/>
<rect x="1100" y="550" width="50" height="50" stroke="#F2F2F2" stroke-width="2"/>
<rect x="1150" y="550" width="50" height="50" stroke="#F2F2F2" stroke-width="2"/>
<rect x="1200" y="550" width="50" height="50" stroke="#F2F2F2" stroke-width="2"/>
<rect x="1250" y="550" width="50" height="50" stroke="#F2F2F2" stroke-width="2"/>
<rect x="1300" y="550" width="50" height="50" stroke="#F2F2F2" stroke-width="2"/>
<rect x="1350" y="550" width="50" height="50" stroke="#F2F2F2" stroke-width="2"/>
<rect x="1400" y="550" width="50" height="50" stroke="#F2F2F2" stroke-width="2"/>
<rect x="1450" y="550" width="50" height="50" stroke="#F2F2F2" stroke-width="2"/>
<rect x="1500" y="550" width="50" height="50" stroke="#F2F2F2" stroke-width="2"/>
<rect x="1550" y="550" width="50" height="50" stroke="#F2F2F2" stroke-width="2"/>
<rect y="600" width="50" height="50" stroke="#F2F2F2" stroke-width="2"/>
<rect x="50" y="600" width="50" height="50" stroke="#F2F2F2" stroke-width="2"/>
<rect x="100" y="600" width="50" height="50" stroke="#F2F2F2" stroke-width="2"/>
<rect x="150" y="600" width="50" height="50" stroke="#F2F2F2" stroke-width="2"/>
<rect x="200" y="600" width="50" height="50" stroke="#F2F2F2" stroke-width="2"/>
<rect x="250" y="600" width="50" height="50" stroke="#F2F2F2" stroke-width="2"/>
<rect x="300" y="600" width="50" height="50" stroke="#F2F2F2" stroke-width="2"/>
<rect x="350" y="600" width="50" height="50" stroke="#F2F2F2" stroke-width="2"/>
<rect x="400" y="600" width="50" height="50" stroke="#F2F2F2" stroke-width="2"/>
<rect x="450" y="600" width="50" height="50" stroke="#F2F2F2" stroke-width="2"/>
<rect x="500" y="600" width="50" height="50" stroke="#F2F2F2" stroke-width="2"/>
<rect x="550" y="600" width="50" height="50" stroke="#F2F2F2" stroke-width="2"/>
<rect x="600" y="600" width="50" height="50" stroke="#F2F2F2" stroke-width="2"/>
<rect x="650" y="600" width="50" height="50" stroke="#F2F2F2" stroke-width="2"/>
<rect x="700" y="600" width="50" height="50" stroke="#F2F2F2" stroke-width="2"/>
<rect x="750" y="600" width="50" height="50" stroke="#F2F2F2" stroke-width="2"/>
<rect x="800" y="600" width="50" height="50" stroke="#F2F2F2" stroke-width="2"/>
<rect x="850" y="600" width="50" height="50" stroke="#F2F2F2" stroke-width="2"/>
<rect x="900" y="600" width="50" height="50" stroke="#F2F2F2" stroke-width="2"/>
<rect x="950" y="600" width="50" height="50" stroke="#F2F2F2" stroke-width="2"/>
<rect x="1000" y="600" width="50" height="50" stroke="#F2F2F2" stroke-width="2"/>
<rect x="1050" y="600" width="50" height="50" stroke="#F2F2F2" stroke-width="2"/>
<rect x="1100" y="600" width="50" height="50" stroke="#F2F2F2" stroke-width="2"/>
<rect x="1150" y="600" width="50" height="50" stroke="#F2F2F2" stroke-width="2"/>
<rect x="1200" y="600" width="50" height="50" stroke="#F2F2F2" stroke-width="2"/>
<rect x="1250" y="600" width="50" height="50" stroke="#F2F2F2" stroke-width="2"/>
<rect x="1300" y="600" width="50" height="50" stroke="#F2F2F2" stroke-width="2"/>
<rect x="1350" y="600" width="50" height="50" stroke="#F2F2F2" stroke-width="2"/>
<rect x="1400" y="600" width="50" height="50" stroke="#F2F2F2" stroke-width="2"/>
<rect x="1450" y="600" width="50" height="50" stroke="#F2F2F2" stroke-width="2"/>
<rect x="1500" y="600" width="50" height="50" stroke="#F2F2F2" stroke-width="2"/>
<rect x="1550" y="600" width="50" height="50" stroke="#F2F2F2" stroke-width="2"/>
<path d="M500 300L450 100L800 200L850 400L500 300Z" fill="#235ED2" fill-opacity="0.05" stroke="#235ED2" stroke-width="4"/>
<path d="M500 300L550 500L850 400L800 200L500 300Z" fill="#235ED2" fill-opacity="0.05" stroke="#235ED2" stroke-width="4"/>
<path d="M850 400L500 300L800 200L1150 300L850 400Z" fill="#235ED2" fill-opacity="0.05" stroke="#235ED2" stroke-width="4"/>
<rect x="843" y="393" width="14" height="14" rx="7" fill="white" stroke="#235ED2" stroke-width="4"/>
<rect x="792" y="192" width="16" height="16" rx="8" fill="white" stroke="#235ED2" stroke-width="4"/>
<rect x="542" y="492" width="16" height="16" rx="8" fill="white" stroke="#235ED2" stroke-width="4"/>
<rect x="442" y="92" width="16" height="16" rx="8" fill="white" stroke="#235ED2" stroke-width="4"/>
<rect x="1142" y="292" width="16" height="16" rx="8" fill="white" stroke="#235ED2" stroke-width="4"/>
<rect x="492" y="292" width="16" height="16" rx="8" fill="white" stroke="#235ED2" stroke-width="4"/>
<path d="M457.244 310H453.92L463.534 283.818H466.807L476.42 310H473.097L465.273 287.96H465.068L457.244 310ZM458.472 299.773H471.869V302.585H458.472V299.773Z" fill="#808080"/>
<path d="M801.17 177V150.818H810.324C812.148 150.818 813.652 151.134 814.837 151.764C816.021 152.386 816.903 153.226 817.483 154.283C818.063 155.331 818.352 156.494 818.352 157.773C818.352 158.898 818.152 159.827 817.751 160.56C817.359 161.293 816.839 161.872 816.192 162.298C815.553 162.724 814.858 163.04 814.108 163.244V163.5C814.909 163.551 815.714 163.832 816.524 164.344C817.334 164.855 818.011 165.588 818.557 166.543C819.102 167.497 819.375 168.665 819.375 170.045C819.375 171.358 819.077 172.538 818.48 173.587C817.884 174.635 816.942 175.466 815.655 176.08C814.368 176.693 812.693 177 810.631 177H801.17ZM804.341 174.188H810.631C812.702 174.188 814.172 173.787 815.041 172.986C815.919 172.176 816.358 171.196 816.358 170.045C816.358 169.159 816.132 168.341 815.68 167.591C815.229 166.832 814.585 166.227 813.75 165.776C812.915 165.315 811.926 165.085 810.784 165.085H804.341V174.188ZM804.341 162.324H810.222C811.176 162.324 812.037 162.136 812.804 161.761C813.58 161.386 814.193 160.858 814.645 160.176C815.105 159.494 815.335 158.693 815.335 157.773C815.335 156.622 814.935 155.646 814.134 154.845C813.332 154.036 812.063 153.631 810.324 153.631H804.341V162.324Z" fill="#808080"/>
<path d="M1176.24 310H1172.92L1182.53 283.818H1185.81L1195.42 310H1192.1L1184.27 287.96H1184.07L1176.24 310ZM1177.47 299.773H1190.87V302.585H1177.47V299.773ZM1198.06 283.818V286.119C1198.06 286.818 1197.93 287.564 1197.67 288.357C1197.43 289.141 1197.06 289.903 1196.57 290.645C1196.1 291.378 1195.52 292.017 1194.84 292.562L1193.2 291.233C1193.74 290.466 1194.2 289.669 1194.59 288.842C1194.99 288.007 1195.19 287.116 1195.19 286.17V283.818H1198.06Z" fill="#808080"/>
<path d="M503.17 520V493.818H512.324C514.148 493.818 515.652 494.134 516.837 494.764C518.021 495.386 518.903 496.226 519.483 497.283C520.063 498.331 520.352 499.494 520.352 500.773C520.352 501.898 520.152 502.827 519.751 503.56C519.359 504.293 518.839 504.872 518.192 505.298C517.553 505.724 516.858 506.04 516.108 506.244V506.5C516.909 506.551 517.714 506.832 518.524 507.344C519.334 507.855 520.011 508.588 520.557 509.543C521.102 510.497 521.375 511.665 521.375 513.045C521.375 514.358 521.077 515.538 520.48 516.587C519.884 517.635 518.942 518.466 517.655 519.08C516.368 519.693 514.693 520 512.631 520H503.17ZM506.341 517.188H512.631C514.702 517.188 516.172 516.787 517.041 515.986C517.919 515.176 518.358 514.196 518.358 513.045C518.358 512.159 518.132 511.341 517.68 510.591C517.229 509.832 516.585 509.227 515.75 508.776C514.915 508.315 513.926 508.085 512.784 508.085H506.341V517.188ZM506.341 505.324H512.222C513.176 505.324 514.037 505.136 514.804 504.761C515.58 504.386 516.193 503.858 516.645 503.176C517.105 502.494 517.335 501.693 517.335 500.773C517.335 499.622 516.935 498.646 516.134 497.845C515.332 497.036 514.063 496.631 512.324 496.631H506.341V505.324ZM528.835 493.818V496.119C528.835 496.818 528.707 497.564 528.451 498.357C528.204 499.141 527.837 499.903 527.352 500.645C526.874 501.378 526.295 502.017 525.613 502.562L523.977 501.233C524.513 500.466 524.978 499.669 525.37 498.842C525.771 498.007 525.971 497.116 525.971 496.17V493.818H528.835Z" fill="#808080"/>
<path d="M883.239 430H880.068C879.881 429.088 879.553 428.287 879.084 427.597C878.624 426.906 878.061 426.327 877.396 425.858C876.74 425.381 876.011 425.023 875.21 424.784C874.409 424.545 873.574 424.426 872.705 424.426C871.119 424.426 869.683 424.827 868.396 425.628C867.118 426.429 866.099 427.609 865.341 429.169C864.591 430.729 864.216 432.642 864.216 434.909C864.216 437.176 864.591 439.089 865.341 440.649C866.099 442.209 867.118 443.389 868.396 444.19C869.683 444.991 871.119 445.392 872.705 445.392C873.574 445.392 874.409 445.273 875.21 445.034C876.011 444.795 876.74 444.442 877.396 443.973C878.061 443.496 878.624 442.912 879.084 442.222C879.553 441.523 879.881 440.722 880.068 439.818H883.239C883 441.156 882.565 442.354 881.935 443.411C881.304 444.467 880.52 445.366 879.582 446.108C878.645 446.841 877.592 447.399 876.425 447.783C875.266 448.166 874.026 448.358 872.705 448.358C870.472 448.358 868.486 447.812 866.747 446.722C865.009 445.631 863.641 444.08 862.643 442.068C861.646 440.057 861.148 437.67 861.148 434.909C861.148 432.148 861.646 429.761 862.643 427.75C863.641 425.739 865.009 424.188 866.747 423.097C868.486 422.006 870.472 421.46 872.705 421.46C874.026 421.46 875.266 421.652 876.425 422.036C877.592 422.419 878.645 422.982 879.582 423.723C880.52 424.456 881.304 425.351 881.935 426.408C882.565 427.456 883 428.653 883.239 430Z" fill="#808080"/>
<path d="M427.239 83H424.068C423.881 82.0881 423.553 81.2869 423.084 80.5966C422.624 79.9062 422.061 79.3267 421.396 78.858C420.74 78.3807 420.011 78.0227 419.21 77.7841C418.409 77.5455 417.574 77.4261 416.705 77.4261C415.119 77.4261 413.683 77.8267 412.396 78.6278C411.118 79.429 410.099 80.6094 409.341 82.169C408.591 83.7287 408.216 85.642 408.216 87.9091C408.216 90.1761 408.591 92.0895 409.341 93.6491C410.099 95.2088 411.118 96.3892 412.396 97.1903C413.683 97.9915 415.119 98.392 416.705 98.392C417.574 98.392 418.409 98.2727 419.21 98.0341C420.011 97.7955 420.74 97.4418 421.396 96.973C422.061 96.4957 422.624 95.9119 423.084 95.2216C423.553 94.5227 423.881 93.7216 424.068 92.8182H427.239C427 94.1562 426.565 95.3537 425.935 96.4105C425.304 97.4673 424.52 98.3665 423.582 99.108C422.645 99.8409 421.592 100.399 420.425 100.783C419.266 101.166 418.026 101.358 416.705 101.358C414.472 101.358 412.486 100.812 410.747 99.7216C409.009 98.6307 407.641 97.0795 406.643 95.0682C405.646 93.0568 405.148 90.6705 405.148 87.9091C405.148 85.1477 405.646 82.7614 406.643 80.75C407.641 78.7386 409.009 77.1875 410.747 76.0966C412.486 75.0057 414.472 74.4602 416.705 74.4602C418.026 74.4602 419.266 74.652 420.425 75.0355C421.592 75.419 422.645 75.9815 423.582 76.723C424.52 77.456 425.304 78.3509 425.935 79.4077C426.565 80.456 427 81.6534 427.239 83ZM434.612 74.8182V77.1193C434.612 77.8182 434.484 78.5639 434.228 79.3565C433.981 80.1406 433.615 80.9034 433.129 81.6449C432.652 82.3778 432.072 83.017 431.39 83.5625L429.754 82.233C430.291 81.4659 430.755 80.669 431.147 79.8423C431.548 79.0071 431.748 78.1165 431.748 77.1705V74.8182H434.612Z" fill="#808080"/>
</g>
<rect x="1" y="1" width="1598" height="598" rx="19" stroke="#F2F2F2" stroke-width="2"/>
<defs>
<clipPath id="clip0_3_2">
<rect width="1600" height="600" rx="20" fill="white"/>
</clipPath>
</defs>
</svg>
