<svg width="1600" height="600" viewBox="0 0 1600 600" fill="none" xmlns="http://www.w3.org/2000/svg">
<g clip-path="url(#clip0_25_507)">
<rect width="1600" height="600" rx="20" fill="white"/>
<rect width="50" height="50" stroke="#F2F2F2" stroke-width="2"/>
<rect x="50" width="50" height="50" stroke="#F2F2F2" stroke-width="2"/>
<rect x="100" width="50" height="50" stroke="#F2F2F2" stroke-width="2"/>
<rect x="150" width="50" height="50" stroke="#F2F2F2" stroke-width="2"/>
<rect x="200" width="50" height="50" stroke="#F2F2F2" stroke-width="2"/>
<rect x="250" width="50" height="50" stroke="#F2F2F2" stroke-width="2"/>
<rect x="300" width="50" height="50" stroke="#F2F2F2" stroke-width="2"/>
<rect x="350" width="50" height="50" stroke="#F2F2F2" stroke-width="2"/>
<rect x="400" width="50" height="50" stroke="#F2F2F2" stroke-width="2"/>
<rect x="450" width="50" height="50" stroke="#F2F2F2" stroke-width="2"/>
<rect x="500" width="50" height="50" stroke="#F2F2F2" stroke-width="2"/>
<rect x="550" width="50" height="50" stroke="#F2F2F2" stroke-width="2"/>
<rect x="600" width="50" height="50" stroke="#F2F2F2" stroke-width="2"/>
<rect x="650" width="50" height="50" stroke="#F2F2F2" stroke-width="2"/>
<rect x="700" width="50" height="50" stroke="#F2F2F2" stroke-width="2"/>
<rect x="750" width="50" height="50" stroke="#F2F2F2" stroke-width="2"/>
<rect x="800" width="50" height="50" stroke="#F2F2F2" stroke-width="2"/>
<rect x="850" width="50" height="50" stroke="#F2F2F2" stroke-width="2"/>
<rect x="900" width="50" height="50" stroke="#F2F2F2" stroke-width="2"/>
<rect x="950" width="50" height="50" stroke="#F2F2F2" stroke-width="2"/>
<rect x="1000" width="50" height="50" stroke="#F2F2F2" stroke-width="2"/>
<rect x="1050" width="50" height="50" stroke="#F2F2F2" stroke-width="2"/>
<rect x="1100" width="50" height="50" stroke="#F2F2F2" stroke-width="2"/>
<rect x="1150" width="50" height="50" stroke="#F2F2F2" stroke-width="2"/>
<rect x="1200" width="50" height="50" stroke="#F2F2F2" stroke-width="2"/>
<rect x="1250" width="50" height="50" stroke="#F2F2F2" stroke-width="2"/>
<rect x="1300" width="50" height="50" stroke="#F2F2F2" stroke-width="2"/>
<rect x="1350" width="50" height="50" stroke="#F2F2F2" stroke-width="2"/>
<rect x="1400" width="50" height="50" stroke="#F2F2F2" stroke-width="2"/>
<rect x="1450" width="50" height="50" stroke="#F2F2F2" stroke-width="2"/>
<rect x="1500" width="50" height="50" stroke="#F2F2F2" stroke-width="2"/>
<rect x="1550" width="50" height="50" stroke="#F2F2F2" stroke-width="2"/>
<rect y="50" width="50" height="50" stroke="#F2F2F2" stroke-width="2"/>
<rect x="50" y="50" width="50" height="50" stroke="#F2F2F2" stroke-width="2"/>
<rect x="100" y="50" width="50" height="50" stroke="#F2F2F2" stroke-width="2"/>
<rect x="150" y="50" width="50" height="50" stroke="#F2F2F2" stroke-width="2"/>
<rect x="200" y="50" width="50" height="50" stroke="#F2F2F2" stroke-width="2"/>
<rect x="250" y="50" width="50" height="50" stroke="#F2F2F2" stroke-width="2"/>
<rect x="300" y="50" width="50" height="50" stroke="#F2F2F2" stroke-width="2"/>
<rect x="350" y="50" width="50" height="50" stroke="#F2F2F2" stroke-width="2"/>
<rect x="400" y="50" width="50" height="50" stroke="#F2F2F2" stroke-width="2"/>
<rect x="450" y="50" width="50" height="50" stroke="#F2F2F2" stroke-width="2"/>
<rect x="500" y="50" width="50" height="50" stroke="#F2F2F2" stroke-width="2"/>
<rect x="550" y="50" width="50" height="50" stroke="#F2F2F2" stroke-width="2"/>
<rect x="600" y="50" width="50" height="50" stroke="#F2F2F2" stroke-width="2"/>
<rect x="650" y="50" width="50" height="50" stroke="#F2F2F2" stroke-width="2"/>
<rect x="700" y="50" width="50" height="50" stroke="#F2F2F2" stroke-width="2"/>
<rect x="750" y="50" width="50" height="50" stroke="#F2F2F2" stroke-width="2"/>
<rect x="800" y="50" width="50" height="50" stroke="#F2F2F2" stroke-width="2"/>
<rect x="850" y="50" width="50" height="50" stroke="#F2F2F2" stroke-width="2"/>
<rect x="900" y="50" width="50" height="50" stroke="#F2F2F2" stroke-width="2"/>
<rect x="950" y="50" width="50" height="50" stroke="#F2F2F2" stroke-width="2"/>
<rect x="1000" y="50" width="50" height="50" stroke="#F2F2F2" stroke-width="2"/>
<rect x="1050" y="50" width="50" height="50" stroke="#F2F2F2" stroke-width="2"/>
<rect x="1100" y="50" width="50" height="50" stroke="#F2F2F2" stroke-width="2"/>
<rect x="1150" y="50" width="50" height="50" stroke="#F2F2F2" stroke-width="2"/>
<rect x="1200" y="50" width="50" height="50" stroke="#F2F2F2" stroke-width="2"/>
<rect x="1250" y="50" width="50" height="50" stroke="#F2F2F2" stroke-width="2"/>
<rect x="1300" y="50" width="50" height="50" stroke="#F2F2F2" stroke-width="2"/>
<rect x="1350" y="50" width="50" height="50" stroke="#F2F2F2" stroke-width="2"/>
<rect x="1400" y="50" width="50" height="50" stroke="#F2F2F2" stroke-width="2"/>
<rect x="1450" y="50" width="50" height="50" stroke="#F2F2F2" stroke-width="2"/>
<rect x="1500" y="50" width="50" height="50" stroke="#F2F2F2" stroke-width="2"/>
<rect x="1550" y="50" width="50" height="50" stroke="#F2F2F2" stroke-width="2"/>
<rect y="100" width="50" height="50" stroke="#F2F2F2" stroke-width="2"/>
<rect x="50" y="100" width="50" height="50" stroke="#F2F2F2" stroke-width="2"/>
<rect x="100" y="100" width="50" height="50" stroke="#F2F2F2" stroke-width="2"/>
<rect x="150" y="100" width="50" height="50" stroke="#F2F2F2" stroke-width="2"/>
<rect x="200" y="100" width="50" height="50" stroke="#F2F2F2" stroke-width="2"/>
<rect x="250" y="100" width="50" height="50" stroke="#F2F2F2" stroke-width="2"/>
<rect x="300" y="100" width="50" height="50" stroke="#F2F2F2" stroke-width="2"/>
<rect x="350" y="100" width="50" height="50" stroke="#F2F2F2" stroke-width="2"/>
<rect x="400" y="100" width="50" height="50" stroke="#F2F2F2" stroke-width="2"/>
<rect x="450" y="100" width="50" height="50" stroke="#F2F2F2" stroke-width="2"/>
<rect x="500" y="100" width="50" height="50" stroke="#F2F2F2" stroke-width="2"/>
<rect x="550" y="100" width="50" height="50" stroke="#F2F2F2" stroke-width="2"/>
<rect x="600" y="100" width="50" height="50" stroke="#F2F2F2" stroke-width="2"/>
<rect x="650" y="100" width="50" height="50" stroke="#F2F2F2" stroke-width="2"/>
<rect x="700" y="100" width="50" height="50" stroke="#F2F2F2" stroke-width="2"/>
<rect x="750" y="100" width="50" height="50" stroke="#F2F2F2" stroke-width="2"/>
<rect x="800" y="100" width="50" height="50" stroke="#F2F2F2" stroke-width="2"/>
<rect x="850" y="100" width="50" height="50" stroke="#F2F2F2" stroke-width="2"/>
<rect x="900" y="100" width="50" height="50" stroke="#F2F2F2" stroke-width="2"/>
<rect x="950" y="100" width="50" height="50" stroke="#F2F2F2" stroke-width="2"/>
<rect x="1000" y="100" width="50" height="50" stroke="#F2F2F2" stroke-width="2"/>
<rect x="1050" y="100" width="50" height="50" stroke="#F2F2F2" stroke-width="2"/>
<rect x="1100" y="100" width="50" height="50" stroke="#F2F2F2" stroke-width="2"/>
<rect x="1150" y="100" width="50" height="50" stroke="#F2F2F2" stroke-width="2"/>
<rect x="1200" y="100" width="50" height="50" stroke="#F2F2F2" stroke-width="2"/>
<rect x="1250" y="100" width="50" height="50" stroke="#F2F2F2" stroke-width="2"/>
<rect x="1300" y="100" width="50" height="50" stroke="#F2F2F2" stroke-width="2"/>
<rect x="1350" y="100" width="50" height="50" stroke="#F2F2F2" stroke-width="2"/>
<rect x="1400" y="100" width="50" height="50" stroke="#F2F2F2" stroke-width="2"/>
<rect x="1450" y="100" width="50" height="50" stroke="#F2F2F2" stroke-width="2"/>
<rect x="1500" y="100" width="50" height="50" stroke="#F2F2F2" stroke-width="2"/>
<rect x="1550" y="100" width="50" height="50" stroke="#F2F2F2" stroke-width="2"/>
<rect y="150" width="50" height="50" stroke="#F2F2F2" stroke-width="2"/>
<rect x="50" y="150" width="50" height="50" stroke="#F2F2F2" stroke-width="2"/>
<rect x="100" y="150" width="50" height="50" stroke="#F2F2F2" stroke-width="2"/>
<rect x="150" y="150" width="50" height="50" stroke="#F2F2F2" stroke-width="2"/>
<rect x="200" y="150" width="50" height="50" stroke="#F2F2F2" stroke-width="2"/>
<rect x="250" y="150" width="50" height="50" stroke="#F2F2F2" stroke-width="2"/>
<rect x="300" y="150" width="50" height="50" stroke="#F2F2F2" stroke-width="2"/>
<rect x="350" y="150" width="50" height="50" stroke="#F2F2F2" stroke-width="2"/>
<rect x="400" y="150" width="50" height="50" stroke="#F2F2F2" stroke-width="2"/>
<rect x="450" y="150" width="50" height="50" stroke="#F2F2F2" stroke-width="2"/>
<rect x="500" y="150" width="50" height="50" stroke="#F2F2F2" stroke-width="2"/>
<rect x="550" y="150" width="50" height="50" stroke="#F2F2F2" stroke-width="2"/>
<rect x="600" y="150" width="50" height="50" stroke="#F2F2F2" stroke-width="2"/>
<rect x="650" y="150" width="50" height="50" stroke="#F2F2F2" stroke-width="2"/>
<rect x="700" y="150" width="50" height="50" stroke="#F2F2F2" stroke-width="2"/>
<rect x="750" y="150" width="50" height="50" stroke="#F2F2F2" stroke-width="2"/>
<rect x="800" y="150" width="50" height="50" stroke="#F2F2F2" stroke-width="2"/>
<rect x="850" y="150" width="50" height="50" stroke="#F2F2F2" stroke-width="2"/>
<rect x="900" y="150" width="50" height="50" stroke="#F2F2F2" stroke-width="2"/>
<rect x="950" y="150" width="50" height="50" stroke="#F2F2F2" stroke-width="2"/>
<rect x="1000" y="150" width="50" height="50" stroke="#F2F2F2" stroke-width="2"/>
<rect x="1050" y="150" width="50" height="50" stroke="#F2F2F2" stroke-width="2"/>
<rect x="1100" y="150" width="50" height="50" stroke="#F2F2F2" stroke-width="2"/>
<rect x="1150" y="150" width="50" height="50" stroke="#F2F2F2" stroke-width="2"/>
<rect x="1200" y="150" width="50" height="50" stroke="#F2F2F2" stroke-width="2"/>
<rect x="1250" y="150" width="50" height="50" stroke="#F2F2F2" stroke-width="2"/>
<rect x="1300" y="150" width="50" height="50" stroke="#F2F2F2" stroke-width="2"/>
<rect x="1350" y="150" width="50" height="50" stroke="#F2F2F2" stroke-width="2"/>
<rect x="1400" y="150" width="50" height="50" stroke="#F2F2F2" stroke-width="2"/>
<rect x="1450" y="150" width="50" height="50" stroke="#F2F2F2" stroke-width="2"/>
<rect x="1500" y="150" width="50" height="50" stroke="#F2F2F2" stroke-width="2"/>
<rect x="1550" y="150" width="50" height="50" stroke="#F2F2F2" stroke-width="2"/>
<rect y="200" width="50" height="50" stroke="#F2F2F2" stroke-width="2"/>
<rect x="50" y="200" width="50" height="50" stroke="#F2F2F2" stroke-width="2"/>
<rect x="100" y="200" width="50" height="50" stroke="#F2F2F2" stroke-width="2"/>
<rect x="150" y="200" width="50" height="50" stroke="#F2F2F2" stroke-width="2"/>
<rect x="200" y="200" width="50" height="50" stroke="#F2F2F2" stroke-width="2"/>
<rect x="250" y="200" width="50" height="50" stroke="#F2F2F2" stroke-width="2"/>
<rect x="300" y="200" width="50" height="50" stroke="#F2F2F2" stroke-width="2"/>
<rect x="350" y="200" width="50" height="50" stroke="#F2F2F2" stroke-width="2"/>
<rect x="400" y="200" width="50" height="50" stroke="#F2F2F2" stroke-width="2"/>
<rect x="450" y="200" width="50" height="50" stroke="#F2F2F2" stroke-width="2"/>
<rect x="500" y="200" width="50" height="50" stroke="#F2F2F2" stroke-width="2"/>
<rect x="550" y="200" width="50" height="50" stroke="#F2F2F2" stroke-width="2"/>
<rect x="600" y="200" width="50" height="50" stroke="#F2F2F2" stroke-width="2"/>
<rect x="650" y="200" width="50" height="50" stroke="#F2F2F2" stroke-width="2"/>
<rect x="700" y="200" width="50" height="50" stroke="#F2F2F2" stroke-width="2"/>
<rect x="750" y="200" width="50" height="50" stroke="#F2F2F2" stroke-width="2"/>
<rect x="800" y="200" width="50" height="50" stroke="#F2F2F2" stroke-width="2"/>
<rect x="850" y="200" width="50" height="50" stroke="#F2F2F2" stroke-width="2"/>
<rect x="900" y="200" width="50" height="50" stroke="#F2F2F2" stroke-width="2"/>
<rect x="950" y="200" width="50" height="50" stroke="#F2F2F2" stroke-width="2"/>
<rect x="1000" y="200" width="50" height="50" stroke="#F2F2F2" stroke-width="2"/>
<rect x="1050" y="200" width="50" height="50" stroke="#F2F2F2" stroke-width="2"/>
<rect x="1100" y="200" width="50" height="50" stroke="#F2F2F2" stroke-width="2"/>
<rect x="1150" y="200" width="50" height="50" stroke="#F2F2F2" stroke-width="2"/>
<rect x="1200" y="200" width="50" height="50" stroke="#F2F2F2" stroke-width="2"/>
<rect x="1250" y="200" width="50" height="50" stroke="#F2F2F2" stroke-width="2"/>
<rect x="1300" y="200" width="50" height="50" stroke="#F2F2F2" stroke-width="2"/>
<rect x="1350" y="200" width="50" height="50" stroke="#F2F2F2" stroke-width="2"/>
<rect x="1400" y="200" width="50" height="50" stroke="#F2F2F2" stroke-width="2"/>
<rect x="1450" y="200" width="50" height="50" stroke="#F2F2F2" stroke-width="2"/>
<rect x="1500" y="200" width="50" height="50" stroke="#F2F2F2" stroke-width="2"/>
<rect x="1550" y="200" width="50" height="50" stroke="#F2F2F2" stroke-width="2"/>
<rect y="250" width="50" height="50" stroke="#F2F2F2" stroke-width="2"/>
<rect x="50" y="250" width="50" height="50" stroke="#F2F2F2" stroke-width="2"/>
<rect x="100" y="250" width="50" height="50" stroke="#F2F2F2" stroke-width="2"/>
<rect x="150" y="250" width="50" height="50" stroke="#F2F2F2" stroke-width="2"/>
<rect x="200" y="250" width="50" height="50" stroke="#F2F2F2" stroke-width="2"/>
<rect x="250" y="250" width="50" height="50" stroke="#F2F2F2" stroke-width="2"/>
<rect x="300" y="250" width="50" height="50" stroke="#F2F2F2" stroke-width="2"/>
<rect x="350" y="250" width="50" height="50" stroke="#F2F2F2" stroke-width="2"/>
<rect x="400" y="250" width="50" height="50" stroke="#F2F2F2" stroke-width="2"/>
<rect x="450" y="250" width="50" height="50" stroke="#F2F2F2" stroke-width="2"/>
<rect x="500" y="250" width="50" height="50" stroke="#F2F2F2" stroke-width="2"/>
<rect x="550" y="250" width="50" height="50" stroke="#F2F2F2" stroke-width="2"/>
<rect x="600" y="250" width="50" height="50" stroke="#F2F2F2" stroke-width="2"/>
<rect x="650" y="250" width="50" height="50" stroke="#F2F2F2" stroke-width="2"/>
<rect x="700" y="250" width="50" height="50" stroke="#F2F2F2" stroke-width="2"/>
<rect x="750" y="250" width="50" height="50" stroke="#F2F2F2" stroke-width="2"/>
<rect x="800" y="250" width="50" height="50" stroke="#F2F2F2" stroke-width="2"/>
<rect x="850" y="250" width="50" height="50" stroke="#F2F2F2" stroke-width="2"/>
<rect x="900" y="250" width="50" height="50" stroke="#F2F2F2" stroke-width="2"/>
<rect x="950" y="250" width="50" height="50" stroke="#F2F2F2" stroke-width="2"/>
<rect x="1000" y="250" width="50" height="50" stroke="#F2F2F2" stroke-width="2"/>
<rect x="1050" y="250" width="50" height="50" stroke="#F2F2F2" stroke-width="2"/>
<rect x="1100" y="250" width="50" height="50" stroke="#F2F2F2" stroke-width="2"/>
<rect x="1150" y="250" width="50" height="50" stroke="#F2F2F2" stroke-width="2"/>
<rect x="1200" y="250" width="50" height="50" stroke="#F2F2F2" stroke-width="2"/>
<rect x="1250" y="250" width="50" height="50" stroke="#F2F2F2" stroke-width="2"/>
<rect x="1300" y="250" width="50" height="50" stroke="#F2F2F2" stroke-width="2"/>
<rect x="1350" y="250" width="50" height="50" stroke="#F2F2F2" stroke-width="2"/>
<rect x="1400" y="250" width="50" height="50" stroke="#F2F2F2" stroke-width="2"/>
<rect x="1450" y="250" width="50" height="50" stroke="#F2F2F2" stroke-width="2"/>
<rect x="1500" y="250" width="50" height="50" stroke="#F2F2F2" stroke-width="2"/>
<rect x="1550" y="250" width="50" height="50" stroke="#F2F2F2" stroke-width="2"/>
<rect y="300" width="50" height="50" stroke="#F2F2F2" stroke-width="2"/>
<rect x="50" y="300" width="50" height="50" stroke="#F2F2F2" stroke-width="2"/>
<rect x="100" y="300" width="50" height="50" stroke="#F2F2F2" stroke-width="2"/>
<rect x="150" y="300" width="50" height="50" stroke="#F2F2F2" stroke-width="2"/>
<rect x="200" y="300" width="50" height="50" stroke="#F2F2F2" stroke-width="2"/>
<rect x="250" y="300" width="50" height="50" stroke="#F2F2F2" stroke-width="2"/>
<rect x="300" y="300" width="50" height="50" stroke="#F2F2F2" stroke-width="2"/>
<rect x="350" y="300" width="50" height="50" stroke="#F2F2F2" stroke-width="2"/>
<rect x="400" y="300" width="50" height="50" stroke="#F2F2F2" stroke-width="2"/>
<rect x="450" y="300" width="50" height="50" stroke="#F2F2F2" stroke-width="2"/>
<rect x="500" y="300" width="50" height="50" stroke="#F2F2F2" stroke-width="2"/>
<rect x="550" y="300" width="50" height="50" stroke="#F2F2F2" stroke-width="2"/>
<rect x="600" y="300" width="50" height="50" stroke="#F2F2F2" stroke-width="2"/>
<rect x="650" y="300" width="50" height="50" stroke="#F2F2F2" stroke-width="2"/>
<rect x="700" y="300" width="50" height="50" stroke="#F2F2F2" stroke-width="2"/>
<rect x="750" y="300" width="50" height="50" stroke="#F2F2F2" stroke-width="2"/>
<rect x="800" y="300" width="50" height="50" stroke="#F2F2F2" stroke-width="2"/>
<rect x="850" y="300" width="50" height="50" stroke="#F2F2F2" stroke-width="2"/>
<rect x="900" y="300" width="50" height="50" stroke="#F2F2F2" stroke-width="2"/>
<rect x="950" y="300" width="50" height="50" stroke="#F2F2F2" stroke-width="2"/>
<rect x="1000" y="300" width="50" height="50" stroke="#F2F2F2" stroke-width="2"/>
<rect x="1050" y="300" width="50" height="50" stroke="#F2F2F2" stroke-width="2"/>
<rect x="1100" y="300" width="50" height="50" stroke="#F2F2F2" stroke-width="2"/>
<rect x="1150" y="300" width="50" height="50" stroke="#F2F2F2" stroke-width="2"/>
<rect x="1200" y="300" width="50" height="50" stroke="#F2F2F2" stroke-width="2"/>
<rect x="1250" y="300" width="50" height="50" stroke="#F2F2F2" stroke-width="2"/>
<rect x="1300" y="300" width="50" height="50" stroke="#F2F2F2" stroke-width="2"/>
<rect x="1350" y="300" width="50" height="50" stroke="#F2F2F2" stroke-width="2"/>
<rect x="1400" y="300" width="50" height="50" stroke="#F2F2F2" stroke-width="2"/>
<rect x="1450" y="300" width="50" height="50" stroke="#F2F2F2" stroke-width="2"/>
<rect x="1500" y="300" width="50" height="50" stroke="#F2F2F2" stroke-width="2"/>
<rect x="1550" y="300" width="50" height="50" stroke="#F2F2F2" stroke-width="2"/>
<rect y="350" width="50" height="50" stroke="#F2F2F2" stroke-width="2"/>
<rect x="50" y="350" width="50" height="50" stroke="#F2F2F2" stroke-width="2"/>
<rect x="100" y="350" width="50" height="50" stroke="#F2F2F2" stroke-width="2"/>
<rect x="150" y="350" width="50" height="50" stroke="#F2F2F2" stroke-width="2"/>
<rect x="200" y="350" width="50" height="50" stroke="#F2F2F2" stroke-width="2"/>
<rect x="250" y="350" width="50" height="50" stroke="#F2F2F2" stroke-width="2"/>
<rect x="300" y="350" width="50" height="50" stroke="#F2F2F2" stroke-width="2"/>
<rect x="350" y="350" width="50" height="50" stroke="#F2F2F2" stroke-width="2"/>
<rect x="400" y="350" width="50" height="50" stroke="#F2F2F2" stroke-width="2"/>
<rect x="450" y="350" width="50" height="50" stroke="#F2F2F2" stroke-width="2"/>
<rect x="500" y="350" width="50" height="50" stroke="#F2F2F2" stroke-width="2"/>
<rect x="550" y="350" width="50" height="50" stroke="#F2F2F2" stroke-width="2"/>
<rect x="600" y="350" width="50" height="50" stroke="#F2F2F2" stroke-width="2"/>
<rect x="650" y="350" width="50" height="50" stroke="#F2F2F2" stroke-width="2"/>
<rect x="700" y="350" width="50" height="50" stroke="#F2F2F2" stroke-width="2"/>
<rect x="750" y="350" width="50" height="50" stroke="#F2F2F2" stroke-width="2"/>
<rect x="800" y="350" width="50" height="50" stroke="#F2F2F2" stroke-width="2"/>
<rect x="850" y="350" width="50" height="50" stroke="#F2F2F2" stroke-width="2"/>
<rect x="900" y="350" width="50" height="50" stroke="#F2F2F2" stroke-width="2"/>
<rect x="950" y="350" width="50" height="50" stroke="#F2F2F2" stroke-width="2"/>
<rect x="1000" y="350" width="50" height="50" stroke="#F2F2F2" stroke-width="2"/>
<rect x="1050" y="350" width="50" height="50" stroke="#F2F2F2" stroke-width="2"/>
<rect x="1100" y="350" width="50" height="50" stroke="#F2F2F2" stroke-width="2"/>
<rect x="1150" y="350" width="50" height="50" stroke="#F2F2F2" stroke-width="2"/>
<rect x="1200" y="350" width="50" height="50" stroke="#F2F2F2" stroke-width="2"/>
<rect x="1250" y="350" width="50" height="50" stroke="#F2F2F2" stroke-width="2"/>
<rect x="1300" y="350" width="50" height="50" stroke="#F2F2F2" stroke-width="2"/>
<rect x="1350" y="350" width="50" height="50" stroke="#F2F2F2" stroke-width="2"/>
<rect x="1400" y="350" width="50" height="50" stroke="#F2F2F2" stroke-width="2"/>
<rect x="1450" y="350" width="50" height="50" stroke="#F2F2F2" stroke-width="2"/>
<rect x="1500" y="350" width="50" height="50" stroke="#F2F2F2" stroke-width="2"/>
<rect x="1550" y="350" width="50" height="50" stroke="#F2F2F2" stroke-width="2"/>
<rect y="400" width="50" height="50" stroke="#F2F2F2" stroke-width="2"/>
<rect x="50" y="400" width="50" height="50" stroke="#F2F2F2" stroke-width="2"/>
<rect x="100" y="400" width="50" height="50" stroke="#F2F2F2" stroke-width="2"/>
<rect x="150" y="400" width="50" height="50" stroke="#F2F2F2" stroke-width="2"/>
<rect x="200" y="400" width="50" height="50" stroke="#F2F2F2" stroke-width="2"/>
<rect x="250" y="400" width="50" height="50" stroke="#F2F2F2" stroke-width="2"/>
<rect x="300" y="400" width="50" height="50" stroke="#F2F2F2" stroke-width="2"/>
<rect x="350" y="400" width="50" height="50" stroke="#F2F2F2" stroke-width="2"/>
<rect x="400" y="400" width="50" height="50" stroke="#F2F2F2" stroke-width="2"/>
<rect x="450" y="400" width="50" height="50" stroke="#F2F2F2" stroke-width="2"/>
<rect x="500" y="400" width="50" height="50" stroke="#F2F2F2" stroke-width="2"/>
<rect x="550" y="400" width="50" height="50" stroke="#F2F2F2" stroke-width="2"/>
<rect x="600" y="400" width="50" height="50" stroke="#F2F2F2" stroke-width="2"/>
<rect x="650" y="400" width="50" height="50" stroke="#F2F2F2" stroke-width="2"/>
<rect x="700" y="400" width="50" height="50" stroke="#F2F2F2" stroke-width="2"/>
<rect x="750" y="400" width="50" height="50" stroke="#F2F2F2" stroke-width="2"/>
<rect x="800" y="400" width="50" height="50" stroke="#F2F2F2" stroke-width="2"/>
<rect x="850" y="400" width="50" height="50" stroke="#F2F2F2" stroke-width="2"/>
<rect x="900" y="400" width="50" height="50" stroke="#F2F2F2" stroke-width="2"/>
<rect x="950" y="400" width="50" height="50" stroke="#F2F2F2" stroke-width="2"/>
<rect x="1000" y="400" width="50" height="50" stroke="#F2F2F2" stroke-width="2"/>
<rect x="1050" y="400" width="50" height="50" stroke="#F2F2F2" stroke-width="2"/>
<rect x="1100" y="400" width="50" height="50" stroke="#F2F2F2" stroke-width="2"/>
<rect x="1150" y="400" width="50" height="50" stroke="#F2F2F2" stroke-width="2"/>
<rect x="1200" y="400" width="50" height="50" stroke="#F2F2F2" stroke-width="2"/>
<rect x="1250" y="400" width="50" height="50" stroke="#F2F2F2" stroke-width="2"/>
<rect x="1300" y="400" width="50" height="50" stroke="#F2F2F2" stroke-width="2"/>
<rect x="1350" y="400" width="50" height="50" stroke="#F2F2F2" stroke-width="2"/>
<rect x="1400" y="400" width="50" height="50" stroke="#F2F2F2" stroke-width="2"/>
<rect x="1450" y="400" width="50" height="50" stroke="#F2F2F2" stroke-width="2"/>
<rect x="1500" y="400" width="50" height="50" stroke="#F2F2F2" stroke-width="2"/>
<rect x="1550" y="400" width="50" height="50" stroke="#F2F2F2" stroke-width="2"/>
<rect y="450" width="50" height="50" stroke="#F2F2F2" stroke-width="2"/>
<rect x="50" y="450" width="50" height="50" stroke="#F2F2F2" stroke-width="2"/>
<rect x="100" y="450" width="50" height="50" stroke="#F2F2F2" stroke-width="2"/>
<rect x="150" y="450" width="50" height="50" stroke="#F2F2F2" stroke-width="2"/>
<rect x="200" y="450" width="50" height="50" stroke="#F2F2F2" stroke-width="2"/>
<rect x="250" y="450" width="50" height="50" stroke="#F2F2F2" stroke-width="2"/>
<rect x="300" y="450" width="50" height="50" stroke="#F2F2F2" stroke-width="2"/>
<rect x="350" y="450" width="50" height="50" stroke="#F2F2F2" stroke-width="2"/>
<rect x="400" y="450" width="50" height="50" stroke="#F2F2F2" stroke-width="2"/>
<rect x="450" y="450" width="50" height="50" stroke="#F2F2F2" stroke-width="2"/>
<rect x="500" y="450" width="50" height="50" stroke="#F2F2F2" stroke-width="2"/>
<rect x="550" y="450" width="50" height="50" stroke="#F2F2F2" stroke-width="2"/>
<rect x="600" y="450" width="50" height="50" stroke="#F2F2F2" stroke-width="2"/>
<rect x="650" y="450" width="50" height="50" stroke="#F2F2F2" stroke-width="2"/>
<rect x="700" y="450" width="50" height="50" stroke="#F2F2F2" stroke-width="2"/>
<rect x="750" y="450" width="50" height="50" stroke="#F2F2F2" stroke-width="2"/>
<rect x="800" y="450" width="50" height="50" stroke="#F2F2F2" stroke-width="2"/>
<rect x="850" y="450" width="50" height="50" stroke="#F2F2F2" stroke-width="2"/>
<rect x="900" y="450" width="50" height="50" stroke="#F2F2F2" stroke-width="2"/>
<rect x="950" y="450" width="50" height="50" stroke="#F2F2F2" stroke-width="2"/>
<rect x="1000" y="450" width="50" height="50" stroke="#F2F2F2" stroke-width="2"/>
<rect x="1050" y="450" width="50" height="50" stroke="#F2F2F2" stroke-width="2"/>
<rect x="1100" y="450" width="50" height="50" stroke="#F2F2F2" stroke-width="2"/>
<rect x="1150" y="450" width="50" height="50" stroke="#F2F2F2" stroke-width="2"/>
<rect x="1200" y="450" width="50" height="50" stroke="#F2F2F2" stroke-width="2"/>
<rect x="1250" y="450" width="50" height="50" stroke="#F2F2F2" stroke-width="2"/>
<rect x="1300" y="450" width="50" height="50" stroke="#F2F2F2" stroke-width="2"/>
<rect x="1350" y="450" width="50" height="50" stroke="#F2F2F2" stroke-width="2"/>
<rect x="1400" y="450" width="50" height="50" stroke="#F2F2F2" stroke-width="2"/>
<rect x="1450" y="450" width="50" height="50" stroke="#F2F2F2" stroke-width="2"/>
<rect x="1500" y="450" width="50" height="50" stroke="#F2F2F2" stroke-width="2"/>
<rect x="1550" y="450" width="50" height="50" stroke="#F2F2F2" stroke-width="2"/>
<rect y="500" width="50" height="50" stroke="#F2F2F2" stroke-width="2"/>
<rect x="50" y="500" width="50" height="50" stroke="#F2F2F2" stroke-width="2"/>
<rect x="100" y="500" width="50" height="50" stroke="#F2F2F2" stroke-width="2"/>
<rect x="150" y="500" width="50" height="50" stroke="#F2F2F2" stroke-width="2"/>
<rect x="200" y="500" width="50" height="50" stroke="#F2F2F2" stroke-width="2"/>
<rect x="250" y="500" width="50" height="50" stroke="#F2F2F2" stroke-width="2"/>
<rect x="300" y="500" width="50" height="50" stroke="#F2F2F2" stroke-width="2"/>
<rect x="350" y="500" width="50" height="50" stroke="#F2F2F2" stroke-width="2"/>
<rect x="400" y="500" width="50" height="50" stroke="#F2F2F2" stroke-width="2"/>
<rect x="450" y="500" width="50" height="50" stroke="#F2F2F2" stroke-width="2"/>
<rect x="500" y="500" width="50" height="50" stroke="#F2F2F2" stroke-width="2"/>
<rect x="550" y="500" width="50" height="50" stroke="#F2F2F2" stroke-width="2"/>
<rect x="600" y="500" width="50" height="50" stroke="#F2F2F2" stroke-width="2"/>
<rect x="650" y="500" width="50" height="50" stroke="#F2F2F2" stroke-width="2"/>
<rect x="700" y="500" width="50" height="50" stroke="#F2F2F2" stroke-width="2"/>
<rect x="750" y="500" width="50" height="50" stroke="#F2F2F2" stroke-width="2"/>
<rect x="800" y="500" width="50" height="50" stroke="#F2F2F2" stroke-width="2"/>
<rect x="850" y="500" width="50" height="50" stroke="#F2F2F2" stroke-width="2"/>
<rect x="900" y="500" width="50" height="50" stroke="#F2F2F2" stroke-width="2"/>
<rect x="950" y="500" width="50" height="50" stroke="#F2F2F2" stroke-width="2"/>
<rect x="1000" y="500" width="50" height="50" stroke="#F2F2F2" stroke-width="2"/>
<rect x="1050" y="500" width="50" height="50" stroke="#F2F2F2" stroke-width="2"/>
<rect x="1100" y="500" width="50" height="50" stroke="#F2F2F2" stroke-width="2"/>
<rect x="1150" y="500" width="50" height="50" stroke="#F2F2F2" stroke-width="2"/>
<rect x="1200" y="500" width="50" height="50" stroke="#F2F2F2" stroke-width="2"/>
<rect x="1250" y="500" width="50" height="50" stroke="#F2F2F2" stroke-width="2"/>
<rect x="1300" y="500" width="50" height="50" stroke="#F2F2F2" stroke-width="2"/>
<rect x="1350" y="500" width="50" height="50" stroke="#F2F2F2" stroke-width="2"/>
<rect x="1400" y="500" width="50" height="50" stroke="#F2F2F2" stroke-width="2"/>
<rect x="1450" y="500" width="50" height="50" stroke="#F2F2F2" stroke-width="2"/>
<rect x="1500" y="500" width="50" height="50" stroke="#F2F2F2" stroke-width="2"/>
<rect x="1550" y="500" width="50" height="50" stroke="#F2F2F2" stroke-width="2"/>
<rect y="550" width="50" height="50" stroke="#F2F2F2" stroke-width="2"/>
<rect x="50" y="550" width="50" height="50" stroke="#F2F2F2" stroke-width="2"/>
<rect x="100" y="550" width="50" height="50" stroke="#F2F2F2" stroke-width="2"/>
<rect x="150" y="550" width="50" height="50" stroke="#F2F2F2" stroke-width="2"/>
<rect x="200" y="550" width="50" height="50" stroke="#F2F2F2" stroke-width="2"/>
<rect x="250" y="550" width="50" height="50" stroke="#F2F2F2" stroke-width="2"/>
<rect x="300" y="550" width="50" height="50" stroke="#F2F2F2" stroke-width="2"/>
<rect x="350" y="550" width="50" height="50" stroke="#F2F2F2" stroke-width="2"/>
<rect x="400" y="550" width="50" height="50" stroke="#F2F2F2" stroke-width="2"/>
<rect x="450" y="550" width="50" height="50" stroke="#F2F2F2" stroke-width="2"/>
<rect x="500" y="550" width="50" height="50" stroke="#F2F2F2" stroke-width="2"/>
<rect x="550" y="550" width="50" height="50" stroke="#F2F2F2" stroke-width="2"/>
<rect x="600" y="550" width="50" height="50" stroke="#F2F2F2" stroke-width="2"/>
<rect x="650" y="550" width="50" height="50" stroke="#F2F2F2" stroke-width="2"/>
<rect x="700" y="550" width="50" height="50" stroke="#F2F2F2" stroke-width="2"/>
<rect x="750" y="550" width="50" height="50" stroke="#F2F2F2" stroke-width="2"/>
<rect x="800" y="550" width="50" height="50" stroke="#F2F2F2" stroke-width="2"/>
<rect x="850" y="550" width="50" height="50" stroke="#F2F2F2" stroke-width="2"/>
<rect x="900" y="550" width="50" height="50" stroke="#F2F2F2" stroke-width="2"/>
<rect x="950" y="550" width="50" height="50" stroke="#F2F2F2" stroke-width="2"/>
<rect x="1000" y="550" width="50" height="50" stroke="#F2F2F2" stroke-width="2"/>
<rect x="1050" y="550" width="50" height="50" stroke="#F2F2F2" stroke-width="2"/>
<rect x="1100" y="550" width="50" height="50" stroke="#F2F2F2" stroke-width="2"/>
<rect x="1150" y="550" width="50" height="50" stroke="#F2F2F2" stroke-width="2"/>
<rect x="1200" y="550" width="50" height="50" stroke="#F2F2F2" stroke-width="2"/>
<rect x="1250" y="550" width="50" height="50" stroke="#F2F2F2" stroke-width="2"/>
<rect x="1300" y="550" width="50" height="50" stroke="#F2F2F2" stroke-width="2"/>
<rect x="1350" y="550" width="50" height="50" stroke="#F2F2F2" stroke-width="2"/>
<rect x="1400" y="550" width="50" height="50" stroke="#F2F2F2" stroke-width="2"/>
<rect x="1450" y="550" width="50" height="50" stroke="#F2F2F2" stroke-width="2"/>
<rect x="1500" y="550" width="50" height="50" stroke="#F2F2F2" stroke-width="2"/>
<rect x="1550" y="550" width="50" height="50" stroke="#F2F2F2" stroke-width="2"/>
<rect y="600" width="50" height="50" stroke="#F2F2F2" stroke-width="2"/>
<rect x="50" y="600" width="50" height="50" stroke="#F2F2F2" stroke-width="2"/>
<rect x="100" y="600" width="50" height="50" stroke="#F2F2F2" stroke-width="2"/>
<rect x="150" y="600" width="50" height="50" stroke="#F2F2F2" stroke-width="2"/>
<rect x="200" y="600" width="50" height="50" stroke="#F2F2F2" stroke-width="2"/>
<rect x="250" y="600" width="50" height="50" stroke="#F2F2F2" stroke-width="2"/>
<rect x="300" y="600" width="50" height="50" stroke="#F2F2F2" stroke-width="2"/>
<rect x="350" y="600" width="50" height="50" stroke="#F2F2F2" stroke-width="2"/>
<rect x="400" y="600" width="50" height="50" stroke="#F2F2F2" stroke-width="2"/>
<rect x="450" y="600" width="50" height="50" stroke="#F2F2F2" stroke-width="2"/>
<rect x="500" y="600" width="50" height="50" stroke="#F2F2F2" stroke-width="2"/>
<rect x="550" y="600" width="50" height="50" stroke="#F2F2F2" stroke-width="2"/>
<rect x="600" y="600" width="50" height="50" stroke="#F2F2F2" stroke-width="2"/>
<rect x="650" y="600" width="50" height="50" stroke="#F2F2F2" stroke-width="2"/>
<rect x="700" y="600" width="50" height="50" stroke="#F2F2F2" stroke-width="2"/>
<rect x="750" y="600" width="50" height="50" stroke="#F2F2F2" stroke-width="2"/>
<rect x="800" y="600" width="50" height="50" stroke="#F2F2F2" stroke-width="2"/>
<rect x="850" y="600" width="50" height="50" stroke="#F2F2F2" stroke-width="2"/>
<rect x="900" y="600" width="50" height="50" stroke="#F2F2F2" stroke-width="2"/>
<rect x="950" y="600" width="50" height="50" stroke="#F2F2F2" stroke-width="2"/>
<rect x="1000" y="600" width="50" height="50" stroke="#F2F2F2" stroke-width="2"/>
<rect x="1050" y="600" width="50" height="50" stroke="#F2F2F2" stroke-width="2"/>
<rect x="1100" y="600" width="50" height="50" stroke="#F2F2F2" stroke-width="2"/>
<rect x="1150" y="600" width="50" height="50" stroke="#F2F2F2" stroke-width="2"/>
<rect x="1200" y="600" width="50" height="50" stroke="#F2F2F2" stroke-width="2"/>
<rect x="1250" y="600" width="50" height="50" stroke="#F2F2F2" stroke-width="2"/>
<rect x="1300" y="600" width="50" height="50" stroke="#F2F2F2" stroke-width="2"/>
<rect x="1350" y="600" width="50" height="50" stroke="#F2F2F2" stroke-width="2"/>
<rect x="1400" y="600" width="50" height="50" stroke="#F2F2F2" stroke-width="2"/>
<rect x="1450" y="600" width="50" height="50" stroke="#F2F2F2" stroke-width="2"/>
<rect x="1500" y="600" width="50" height="50" stroke="#F2F2F2" stroke-width="2"/>
<rect x="1550" y="600" width="50" height="50" stroke="#F2F2F2" stroke-width="2"/>
<rect x="750" y="400" width="50" height="50" fill="#235ED2" fill-opacity="0.1" stroke="#235ED2" stroke-width="4"/>
<rect x="750" y="450" width="50" height="50" fill="#235ED2" fill-opacity="0.1" stroke="#235ED2" stroke-width="4"/>
<rect x="750" y="500" width="50" height="50" fill="#235ED2" fill-opacity="0.1" stroke="#235ED2" stroke-width="4"/>
<rect x="800" y="400" width="50" height="50" fill="#235ED2" fill-opacity="0.1" stroke="#235ED2" stroke-width="4"/>
<rect x="800" y="450" width="50" height="50" fill="#235ED2" fill-opacity="0.1" stroke="#235ED2" stroke-width="4"/>
<rect x="800" y="500" width="50" height="50" fill="#235ED2" fill-opacity="0.1" stroke="#235ED2" stroke-width="4"/>
<rect x="850" y="400" width="50" height="50" fill="#235ED2" fill-opacity="0.1" stroke="#235ED2" stroke-width="4"/>
<rect x="850" y="450" width="50" height="50" fill="#235ED2" fill-opacity="0.1" stroke="#235ED2" stroke-width="4"/>
<rect x="850" y="500" width="50" height="50" fill="#235ED2" fill-opacity="0.1" stroke="#235ED2" stroke-width="4"/>
<rect x="900" y="200" width="50" height="50" fill="#FF8C00" fill-opacity="0.1" stroke="#FF8C00" stroke-width="4"/>
<rect x="900" y="250" width="50" height="50" fill="#FF8C00" fill-opacity="0.1" stroke="#FF8C00" stroke-width="4"/>
<rect x="900" y="300" width="50" height="50" fill="#FF8C00" fill-opacity="0.1" stroke="#FF8C00" stroke-width="4"/>
<rect x="900" y="350" width="50" height="50" fill="#FF8C00" fill-opacity="0.1" stroke="#FF8C00" stroke-width="4"/>
<rect x="950" y="200" width="50" height="50" fill="#FF8C00" fill-opacity="0.1" stroke="#FF8C00" stroke-width="4"/>
<rect x="950" y="250" width="50" height="50" fill="#FF8C00" fill-opacity="0.1" stroke="#FF8C00" stroke-width="4"/>
<rect x="950" y="300" width="50" height="50" fill="#FF8C00" fill-opacity="0.1" stroke="#FF8C00" stroke-width="4"/>
<rect x="950" y="350" width="50" height="50" fill="#FF8C00" fill-opacity="0.1" stroke="#FF8C00" stroke-width="4"/>
<rect x="1000" y="200" width="50" height="50" fill="#FF8C00" fill-opacity="0.1" stroke="#FF8C00" stroke-width="4"/>
<rect x="1000" y="250" width="50" height="50" fill="#FF8C00" fill-opacity="0.1" stroke="#FF8C00" stroke-width="4"/>
<rect x="1000" y="300" width="50" height="50" fill="#FF8C00" fill-opacity="0.1" stroke="#FF8C00" stroke-width="4"/>
<rect x="1000" y="350" width="50" height="50" fill="#FF8C00" fill-opacity="0.1" stroke="#FF8C00" stroke-width="4"/>
<rect x="1050" y="200" width="50" height="50" fill="#FF8C00" fill-opacity="0.1" stroke="#FF8C00" stroke-width="4"/>
<rect x="1050" y="250" width="50" height="50" fill="#FF8C00" fill-opacity="0.1" stroke="#FF8C00" stroke-width="4"/>
<rect x="1050" y="300" width="50" height="50" fill="#FF8C00" fill-opacity="0.1" stroke="#FF8C00" stroke-width="4"/>
<rect x="1050" y="350" width="50" height="50" fill="#FF8C00" fill-opacity="0.1" stroke="#FF8C00" stroke-width="4"/>
<rect x="580" y="210" width="50" height="50" transform="rotate(-53.1301 580 210)" fill="#FF8C00" fill-opacity="0.1" stroke="#FF8C00" stroke-width="4"/>
<rect x="660" y="270" width="50" height="50" transform="rotate(-53.1301 660 270)" fill="#FF8C00" fill-opacity="0.1" stroke="#FF8C00" stroke-width="4"/>
<rect x="740" y="330" width="50" height="50" transform="rotate(-53.1301 740 330)" fill="#FF8C00" fill-opacity="0.1" stroke="#FF8C00" stroke-width="4"/>
<rect x="590" y="280" width="50" height="50" transform="rotate(-53.1301 590 280)" fill="#FF8C00" fill-opacity="0.1" stroke="#FF8C00" stroke-width="4"/>
<rect x="670" y="340" width="50" height="50" transform="rotate(-53.1301 670 340)" fill="#FF8C00" fill-opacity="0.1" stroke="#FF8C00" stroke-width="4"/>
<rect x="710" y="120" width="50" height="50" transform="rotate(-53.1301 710 120)" fill="#FF8C00" fill-opacity="0.1" stroke="#FF8C00" stroke-width="4"/>
<rect x="790" y="180" width="50" height="50" transform="rotate(-53.1301 790 180)" fill="#FF8C00" fill-opacity="0.1" stroke="#FF8C00" stroke-width="4"/>
<rect x="640" y="130" width="50" height="50" transform="rotate(-53.1301 640 130)" fill="#FF8C00" fill-opacity="0.1" stroke="#FF8C00" stroke-width="4"/>
<rect x="720" y="190" width="50" height="50" transform="rotate(-53.1301 720 190)" fill="#FF8C00" fill-opacity="0.1" stroke="#FF8C00" stroke-width="4"/>
<rect x="800" y="250" width="50" height="50" transform="rotate(-53.1301 800 250)" fill="#FF8C00" fill-opacity="0.1" stroke="#FF8C00" stroke-width="4"/>
<rect x="650" y="200" width="50" height="50" transform="rotate(-53.1301 650 200)" fill="#FF8C00" fill-opacity="0.1" stroke="#FF8C00" stroke-width="4"/>
<rect x="730" y="260" width="50" height="50" transform="rotate(-53.1301 730 260)" fill="#FF8C00" fill-opacity="0.1" stroke="#FF8C00" stroke-width="4"/>
<rect x="620" y="240" width="50" height="50" transform="rotate(-53.1301 620 240)" fill="#FF8C00" fill-opacity="0.1" stroke="#FF8C00" stroke-width="4"/>
<rect x="700" y="300" width="50" height="50" transform="rotate(-53.1301 700 300)" fill="#FF8C00" fill-opacity="0.1" stroke="#FF8C00" stroke-width="4"/>
<rect x="680" y="160" width="50" height="50" transform="rotate(-53.1301 680 160)" fill="#FF8C00" fill-opacity="0.1" stroke="#FF8C00" stroke-width="4"/>
<rect x="760" y="220" width="50" height="50" transform="rotate(-53.1301 760 220)" fill="#FF8C00" fill-opacity="0.1" stroke="#FF8C00" stroke-width="4"/>
<rect x="550" y="250" width="50" height="50" transform="rotate(-53.1301 550 250)" fill="#235ED2" fill-opacity="0.1" stroke="#235ED2" stroke-width="4"/>
<rect x="630" y="310" width="50" height="50" transform="rotate(-53.1301 630 310)" fill="#235ED2" fill-opacity="0.1" stroke="#235ED2" stroke-width="4"/>
<rect x="710" y="370" width="50" height="50" transform="rotate(-53.1301 710 370)" fill="#235ED2" fill-opacity="0.1" stroke="#235ED2" stroke-width="4"/>
<rect x="610" y="170" width="50" height="50" transform="rotate(-53.1301 610 170)" fill="#235ED2" fill-opacity="0.1" stroke="#235ED2" stroke-width="4"/>
<rect x="690" y="230" width="50" height="50" transform="rotate(-53.1301 690 230)" fill="#235ED2" fill-opacity="0.1" stroke="#235ED2" stroke-width="4"/>
<rect x="770" y="290" width="50" height="50" transform="rotate(-53.1301 770 290)" fill="#235ED2" fill-opacity="0.1" stroke="#235ED2" stroke-width="4"/>
<rect x="670" y="90" width="50" height="50" transform="rotate(-53.1301 670 90)" fill="#235ED2" fill-opacity="0.1" stroke="#235ED2" stroke-width="4"/>
<rect x="750" y="150" width="50" height="50" transform="rotate(-53.1301 750 150)" fill="#235ED2" fill-opacity="0.1" stroke="#235ED2" stroke-width="4"/>
<rect x="830" y="210" width="50" height="50" transform="rotate(-53.1301 830 210)" fill="#235ED2" fill-opacity="0.1" stroke="#235ED2" stroke-width="4"/>
<rect x="743" y="393" width="14" height="14" rx="7" fill="white" stroke="#235ED2" stroke-width="4"/>
<rect x="893" y="393" width="14" height="14" rx="7" fill="white" stroke="#235ED2" stroke-width="4"/>
<rect x="893" y="193" width="14" height="14" rx="7" fill="white" stroke="#235ED2" stroke-width="4"/>
</g>
<rect x="1" y="1" width="1598" height="598" rx="19" stroke="#F2F2F2" stroke-width="2"/>
<defs>
<clipPath id="clip0_25_507">
<rect width="1600" height="600" rx="20" fill="white"/>
</clipPath>
</defs>
</svg>
